<svg width="31" height="31" fill="none" xmlns="http://www.w3.org/2000/svg"><path fill-rule="evenodd" clip-rule="evenodd" d="M30.38 15.19a15.2 15.2 0 1 1-30.38 0 15.2 15.2 0 0 1 30.38 0ZM7.24 20.77l3.1 1.16 1.2 3.85c.07.25.37.34.57.18l1.73-1.41a.52.52 0 0 1 .63-.02l3.11 2.26c.22.16.52.04.57-.22l2.29-10.97a.37.37 0 0 0-.5-.42l-12.7 4.9a.37.37 0 0 0 0 .69Zm4.1.54 6.05-3.73c.11-.07.23.08.13.17l-5 4.64c-.17.17-.28.38-.32.62l-.17 1.26c-.02.17-.25.19-.3.03l-.66-2.3a.6.6 0 0 1 .27-.69Zm3-9.37-.84-.92a2.5 2.5 0 0 1-1.9.94 2.2 2.2 0 0 1-2.03-1.25 2.68 2.68 0 0 1-.28-1.21c0-.44.1-.85.28-1.22a2.24 2.24 0 0 1 3.03-1c.3.15.6.4.88.72l.86-.95a3.78 3.78 0 0 0-4.16-.9 3.48 3.48 0 0 0-1.9 1.92 3.7 3.7 0 0 0 0 2.85 3.55 3.55 0 0 0 4.82 1.9c.5-.22.91-.51 1.23-.88ZM15.48 13h1.28V8.17h.01L20.33 13h1.24V6H20.3v4.82L16.71 6H15.5v7Z" fill="#7FC7FF"/></svg>