<svg width="25" height="25" viewBox="0 0 25 25" fill="none" xmlns="http://www.w3.org/2000/svg">
<g clip-path="url(#clip0_2579_10894)">
<path fill-rule="evenodd" clip-rule="evenodd" d="M12.5001 25C19.4036 25 25.0001 19.4035 25.0001 12.5C25.0001 5.59644 19.4036 0 12.5001 0C5.59645 0 0 5.59644 0 12.5C0 19.4035 5.59645 25 12.5001 25ZM14.7501 6.99311L14.7862 6.97999H14.7632L14.7501 6.99311ZM10.3024 6.97889C10.3024 6.97889 8.44402 6.90889 6.43899 8.36809C6.43899 8.36809 4.43395 11.8072 4.43395 16.047C4.43395 16.047 5.54531 17.9502 8.59278 18.0225C8.59278 18.0225 9.03798 17.4394 9.48755 16.9265C7.77568 16.4145 7.10952 15.3906 7.10952 15.3906L7.6816 15.6816C7.79225 15.7266 7.90332 15.7722 8.01519 15.8182C9.59536 16.4681 11.3347 17.1835 14.2808 16.7054L14.327 16.6952C14.9778 16.551 15.6296 16.4067 16.2804 16.1202C16.3998 16.0599 16.5269 15.9996 16.6607 15.9361C17.0118 15.7694 17.4087 15.581 17.8326 15.3141C17.8326 15.3141 17.1654 16.3379 15.3823 16.8498C15.7498 17.3596 16.2662 17.9436 16.2662 17.9436C18.764 17.8899 20.0106 16.6024 20.4161 16.1835C20.5055 16.0912 20.554 16.041 20.5661 16.0557C20.5661 11.8225 18.549 8.37684 18.549 8.37684C16.7464 7.05875 15.0618 6.99967 14.7435 6.99858L14.5401 7.19876C16.8427 7.85507 17.9572 8.88001 17.9572 8.88001C14.6166 7.23485 11.008 7.14079 7.70348 8.44028C7.1839 8.66233 6.88637 8.80782 6.88637 8.80782C6.88637 8.80782 7.99882 7.71178 10.4523 7.12656L10.3024 6.97889ZM16.3943 13.2676C16.3943 14.077 15.761 14.7333 14.9833 14.7333C14.2056 14.7333 13.5722 14.077 13.5722 13.2742C13.5744 12.4647 14.2088 11.8105 14.9833 11.8105V11.8073C15.7643 11.8073 16.3943 12.4635 16.3943 13.2676ZM9.93161 14.7333C10.7093 14.7333 11.3427 14.077 11.3427 13.2676C11.3427 12.4635 10.7137 11.8073 9.93599 11.8073L9.93161 11.8105C9.15385 11.8105 8.52051 12.4647 8.52051 13.2742C8.52051 14.077 9.15385 14.7333 9.93161 14.7333Z" fill="#7FC7FF"/>
</g>
<defs>
<clipPath id="clip0_2579_10894">
<rect width="25" height="25" fill="white"/>
</clipPath>
</defs>
</svg>
