<svg width="30" height="30" viewBox="0 0 30 30" fill="none" xmlns="http://www.w3.org/2000/svg">
<g clip-path="url(#clip0_4506_9440)">
<path fill-rule="evenodd" clip-rule="evenodd" d="M15 2.12661C7.89022 2.12661 2.12661 7.89022 2.12661 15C2.12661 22.1098 7.89022 27.8734 15 27.8734C15.5873 27.8734 16.0633 28.3494 16.0633 28.9367C16.0633 29.5239 15.5873 30 15 30C6.71573 30 0 23.2843 0 15C0 6.71573 6.71573 0 15 0C15.5873 0 16.0633 0.476057 16.0633 1.0633C16.0633 1.65055 15.5873 2.12661 15 2.12661Z" fill="url(#paint0_linear_4506_9440)"/>
<path fill-rule="evenodd" clip-rule="evenodd" d="M24.0539 25.6485C23.6406 25.2314 23.6437 24.5581 24.0608 24.1448C26.4163 21.8107 27.8734 18.5765 27.8734 15.0001C27.8734 11.4236 26.4163 8.18939 24.0608 5.85533C23.6437 5.44199 23.6406 4.76875 24.0539 4.35161C24.4673 3.93447 25.1405 3.93139 25.5576 4.34473C28.2997 7.06176 30 10.8333 30 15.0001C30 19.1668 28.2997 22.9383 25.5576 25.6554C25.1405 26.0687 24.4673 26.0656 24.0539 25.6485Z" fill="url(#paint1_linear_4506_9440)"/>
<path d="M21.3266 27.8779C21.3266 28.5092 20.8149 29.021 20.1836 29.021C19.5523 29.021 19.0405 28.5092 19.0405 27.8779C19.0405 27.2466 19.5523 26.7349 20.1836 26.7349C20.8149 26.7349 21.3266 27.2466 21.3266 27.8779Z" fill="#7FC7FF"/>
<path fill-rule="evenodd" clip-rule="evenodd" d="M11.1537 4.56471C11.1537 4.51016 11.1338 4.46057 11.1041 4.45561C11.0743 4.44569 10.9355 4.49529 10.7916 4.55975C10.5734 4.6639 10.5189 4.67382 10.4395 4.61926C10.3552 4.56967 10.2858 4.58951 9.95354 4.75317C9.7403 4.86227 9.37828 5.0656 9.1452 5.20445C8.91211 5.34827 8.59969 5.54664 8.44595 5.65574C8.29717 5.75988 7.96987 6.01776 7.72191 6.22109C7.47395 6.42442 7.24086 6.64758 7.21111 6.717C7.18135 6.78644 7.14168 6.9848 7.12185 7.16334C7.09705 7.46088 7.10201 7.4956 7.22599 7.63446C7.29542 7.71381 7.37476 7.76836 7.3946 7.74852C7.41444 7.72372 7.46403 7.73364 7.49379 7.75844C7.53842 7.79315 7.59793 7.76836 7.69215 7.66422C7.7715 7.57991 7.89052 7.44105 7.96491 7.35178C8.0393 7.26252 8.10376 7.16334 8.10376 7.13358C8.10376 7.10382 8.14344 7.04431 8.19303 6.99968C8.23766 6.96001 8.34181 6.90546 8.42611 6.89058C8.51042 6.87074 8.63936 6.7914 8.72366 6.72196C8.80797 6.64758 9.03114 6.50872 9.21959 6.41946C9.40804 6.32523 9.65104 6.18637 9.75022 6.11198C9.88412 6.0128 9.93371 5.93842 9.92379 5.86402C9.91883 5.77476 9.94363 5.745 10.0626 5.72517C10.1668 5.71029 10.2362 5.65574 10.2858 5.54664C10.3255 5.46233 10.39 5.35819 10.4247 5.31355C10.4544 5.26892 10.4743 5.21437 10.4594 5.18958C10.4495 5.16974 10.4941 5.10031 10.5635 5.03088C10.633 4.96145 10.7966 4.85235 10.9206 4.78292C11.0743 4.70358 11.1537 4.62422 11.1537 4.56471ZM19.1132 5.016C19.1132 4.9069 19.0983 4.90194 18.6272 4.89202C18.1759 4.88706 18.1263 4.89698 17.7891 5.06064C17.5312 5.17966 17.432 5.25404 17.4419 5.31355C17.4469 5.36314 17.5411 5.42265 17.675 5.46233C17.799 5.50201 17.8783 5.5516 17.8585 5.56648C17.8337 5.58631 17.6651 5.60615 17.4866 5.61111C17.3031 5.61607 17.1345 5.60119 17.1047 5.57143C17.075 5.54664 16.9758 5.53176 16.8815 5.53672C16.7476 5.54664 16.708 5.57639 16.6832 5.67558C16.6584 5.78468 16.6485 5.78964 16.6038 5.71029C16.5741 5.65078 16.4402 5.60119 16.1873 5.5516C15.9839 5.51688 15.7261 5.44745 15.6169 5.40778C15.5078 5.3681 15.2648 5.33339 15.0714 5.33339C14.878 5.32843 14.5358 5.37306 14.3028 5.42761C13.9159 5.52184 13.8614 5.5516 13.6333 5.77972C13.4994 5.91858 13.2613 6.09711 13.1126 6.18141C12.9638 6.26572 12.7902 6.37978 12.7257 6.43929C12.6464 6.51368 12.6166 6.59798 12.6166 6.72692C12.6166 6.83107 12.6365 6.96001 12.6662 7.01456C12.696 7.06911 12.7505 7.11374 12.7902 7.11374C12.8497 7.11374 12.8547 7.13358 12.815 7.21293C12.7852 7.26748 12.7654 7.35674 12.7654 7.41129C12.7654 7.46584 12.7307 7.51048 12.691 7.51048C12.6513 7.51048 12.5224 7.58983 12.4083 7.68901C12.2596 7.81299 12.1901 7.8477 12.1753 7.80307C12.1653 7.7634 12.091 7.64438 12.0116 7.53527C11.9174 7.40138 11.8728 7.28732 11.8827 7.19309C11.8926 7.07903 11.8728 7.02943 11.7736 6.9848C11.6645 6.93025 11.6198 6.93521 11.4512 7.02943C11.3421 7.08894 11.238 7.15838 11.2181 7.18813C11.1983 7.21789 11.1785 7.28732 11.1785 7.34683C11.1785 7.42121 11.1487 7.46088 11.0991 7.46088C11.0545 7.46088 10.9503 7.54023 10.876 7.63446C10.7966 7.72868 10.7222 7.86258 10.7073 7.93201C10.6925 8.00144 10.7123 8.09071 10.747 8.13038C10.7768 8.17501 10.8462 8.20972 10.8958 8.20477C10.9404 8.20477 11.0495 8.16013 11.1289 8.10558L11.2777 8.0064C11.3173 8.16013 11.3768 8.2246 11.4413 8.2494L11.5504 8.28907C11.3768 8.33866 11.3074 8.39818 11.2777 8.45273C11.2479 8.50728 11.233 8.56183 11.2429 8.57175C11.2479 8.58167 11.3272 8.6263 11.4165 8.67093C11.5008 8.71556 11.5752 8.77011 11.5752 8.79987C11.5752 8.82963 11.5554 8.90402 11.5256 8.97344C11.481 9.0875 11.4512 9.09742 11.1438 9.09742C10.9255 9.09742 10.7718 9.12222 10.7073 9.16685C10.6379 9.21644 10.5982 9.32059 10.5784 9.50407C10.5586 9.64789 10.5189 9.83138 10.4842 9.91569C10.4296 10.0397 10.4296 10.0893 10.4891 10.2132C10.5288 10.2975 10.6131 10.3719 10.6825 10.3868C10.752 10.4017 10.8115 10.4463 10.8214 10.486C10.8313 10.5257 10.7768 10.605 10.6974 10.6546C10.623 10.7092 10.5189 10.7984 10.4743 10.853C10.4247 10.9125 10.3652 11.0365 10.3404 11.1307C10.3156 11.2249 10.2809 11.3588 10.266 11.4282C10.2511 11.4977 10.1618 11.6018 10.0626 11.6613C9.92875 11.7506 9.82957 11.8944 9.63616 12.2812C9.39316 12.7821 9.3882 12.797 9.42787 13.0896C9.44771 13.2532 9.46259 13.4367 9.45267 13.4962C9.44771 13.5607 9.39812 13.6847 9.34356 13.769C9.25926 13.9128 9.2543 13.9773 9.28901 14.2798C9.32869 14.6021 9.34852 14.6418 9.53201 14.8005C9.64112 14.8947 9.74526 15.0286 9.76509 15.0981C9.78493 15.1675 9.88412 15.3311 9.9833 15.47C10.0874 15.6039 10.2313 15.7775 10.3156 15.8568C10.3949 15.9312 10.4941 15.9907 10.5338 15.9907C10.5734 15.9907 10.6379 15.9461 10.6726 15.8915C10.7272 15.8023 10.7669 15.7973 11.0198 15.827C11.2776 15.8568 11.3272 15.8419 11.5752 15.7031C11.724 15.6188 11.8777 15.5444 11.9124 15.5444C11.9422 15.5444 12.0215 15.6436 12.086 15.7725C12.1604 15.9262 12.2348 16.0056 12.3191 16.0205C12.3984 16.0403 12.4728 16.0155 12.5323 15.956C12.6117 15.8766 12.6266 15.8766 12.691 15.9411C12.7456 16.0006 12.7555 16.0552 12.7158 16.1891C12.691 16.2833 12.6662 16.4618 12.6662 16.5858C12.6662 16.6292 12.6656 16.6749 12.665 16.7185C12.664 16.7994 12.663 16.8727 12.6662 16.9082C12.6662 16.9627 12.7406 17.0867 12.8299 17.1809C12.9241 17.2751 13.063 17.4636 13.1473 17.6024C13.2266 17.7363 13.3109 17.9397 13.3308 18.0488C13.3556 18.1579 13.4151 18.3314 13.4647 18.4306C13.5169 18.5351 13.5402 18.5817 13.5336 18.6236C13.5284 18.6572 13.5039 18.6878 13.4597 18.7431C13.3903 18.8274 13.3605 18.9414 13.3605 19.115C13.3605 19.2489 13.3952 19.4373 13.4399 19.5217C13.4845 19.6109 13.6382 19.839 13.787 20.0324C13.9556 20.2556 14.0647 20.449 14.0895 20.578C14.1143 20.7267 14.1837 20.8309 14.3672 20.9995C14.5011 21.1235 14.64 21.297 14.6797 21.3814C14.7193 21.4706 14.7987 21.5797 14.8631 21.6194C14.9475 21.6789 15.0665 21.6839 15.4434 21.6591L15.9145 21.6293C16.5344 21.0243 16.584 20.9549 16.5592 20.8507C16.5344 20.7515 16.5592 20.7119 16.6832 20.6375C16.7625 20.5928 16.832 20.5135 16.832 20.4639C16.827 20.4193 16.7972 20.325 16.7576 20.2556C16.7179 20.1862 16.6881 20.082 16.6832 20.0176C16.6832 19.9382 16.7476 19.8688 16.9063 19.7696C17.0402 19.6903 17.1543 19.5663 17.2039 19.4621C17.2584 19.3382 17.2783 19.1745 17.2634 18.8918C17.2535 18.5893 17.2237 18.4604 17.1444 18.3463C17.0898 18.267 17.0154 18.0736 16.9857 17.9248C16.9361 17.6669 16.9361 17.6421 17.07 17.4437C17.1444 17.3297 17.2832 17.0966 17.3775 16.933C17.4766 16.7594 17.6353 16.5709 17.7395 16.4965C17.8783 16.4023 17.9428 16.3081 17.9825 16.1643C18.0073 16.0552 18.0965 15.8221 18.1759 15.6436C18.2751 15.4204 18.3247 15.227 18.3296 15.0237C18.3346 14.86 18.3247 14.6964 18.3048 14.6616C18.285 14.6319 18.2106 14.6021 18.1362 14.6021C18.0569 14.6071 17.8734 14.6716 17.7246 14.7509C17.5758 14.8352 17.4122 14.8997 17.3675 14.8997C17.3031 14.8997 17.2783 14.86 17.2783 14.7757C17.2783 14.6765 17.308 14.6468 17.4419 14.617C17.5262 14.5972 17.7048 14.5079 17.8387 14.4186C17.9676 14.3294 18.1313 14.2401 18.2106 14.2203C18.285 14.2004 18.4239 14.136 18.5181 14.0765C18.5362 14.064 18.5559 14.0507 18.5762 14.0369C18.6615 13.9789 18.7596 13.9122 18.8156 13.8682C18.895 13.8087 19.0041 13.6053 19.1281 13.2979C19.2272 13.035 19.2967 12.7871 19.2818 12.7524C19.262 12.7226 19.2024 12.6383 19.1429 12.5738L19.0388 12.4548C19.2322 12.4994 19.376 12.5292 19.4851 12.5441C19.624 12.5689 19.7132 12.554 19.7827 12.4994C19.8769 12.43 19.8967 12.4399 20.0901 12.6333C20.2092 12.7474 20.3034 12.8813 20.3034 12.9259C20.3034 12.9755 20.3381 13.0846 20.3778 13.164C20.4323 13.2731 20.4819 13.3078 20.5712 13.2979C20.6753 13.2879 20.6902 13.3127 20.72 13.5607C20.7398 13.7095 20.8241 14.0368 20.9084 14.2798C20.9927 14.5228 21.1217 14.8501 21.196 14.9989C21.2704 15.1476 21.3448 15.3609 21.3647 15.47C21.3795 15.5791 21.4242 15.6981 21.4589 15.7378C21.5085 15.7923 21.5333 15.7824 21.6077 15.6882L21.6969 15.5692C21.692 15.7973 21.7168 15.8965 21.7515 15.9312C21.7862 15.9659 21.8556 15.9907 21.9052 15.9907C21.9548 15.9907 21.9994 15.9411 22.0193 15.8518C22.0391 15.7775 22.0391 15.6386 22.0193 15.5444C22.0044 15.4501 21.9449 15.3262 21.8953 15.2716C21.806 15.1824 21.8011 15.1278 21.8308 14.6815C21.8606 14.2401 21.8804 14.1806 22.0044 14.0517C22.0788 13.9723 22.2077 13.7739 22.2871 13.6103C22.4259 13.3276 22.4458 13.3127 22.6292 13.2979C22.8227 13.2879 22.8276 13.2929 22.9764 13.5954C23.0657 13.7739 23.1301 13.9872 23.1301 14.0913C23.1301 14.1955 23.14 14.3294 23.1549 14.3889C23.1698 14.4633 23.2144 14.5029 23.2789 14.5029C23.3434 14.5029 23.393 14.4534 23.4227 14.3641C23.4672 14.2355 23.4674 14.2401 23.4723 14.427L23.4723 14.4286C23.4773 14.5377 23.5021 14.7162 23.5318 14.8253C23.5566 14.9344 23.5765 15.1625 23.5765 15.3311C23.5765 15.5146 23.6062 15.6882 23.6459 15.7527C23.6856 15.8171 23.7302 15.9659 23.75 16.0899L23.7798 16.313C23.6211 16.0651 23.5318 15.9808 23.4773 15.9659C23.4227 15.951 23.3583 15.951 23.3285 15.9659C23.2987 15.9808 23.2789 16.0254 23.2789 16.0651C23.2789 16.1048 23.3583 16.2684 23.4525 16.4222C23.5616 16.6056 23.6508 16.8338 23.6905 17.0569C23.7302 17.2553 23.8145 17.4884 23.8889 17.6024C23.9583 17.7115 24.0426 17.8752 24.0724 17.9595C24.112 18.0984 24.1468 18.1232 24.2707 18.1232C24.3501 18.1232 24.4294 18.143 24.4443 18.1728C24.4592 18.2025 24.5485 18.2223 24.6427 18.2223C24.7815 18.2223 24.8212 18.1975 24.846 18.1083C24.8708 18.0289 24.846 17.9744 24.7617 17.9099C24.6972 17.8603 24.5733 17.8206 24.4939 17.8256C24.3947 17.8256 24.3253 17.7909 24.2856 17.7264C24.241 17.657 24.236 17.5975 24.2707 17.5281C24.2955 17.4735 24.3203 17.3743 24.3203 17.3049C24.3203 17.2355 24.2707 17.1115 24.2112 17.0272C24.112 16.8982 24.1071 16.8734 24.1716 16.8338C24.2311 16.7991 24.236 16.7495 24.2063 16.6007C24.1815 16.4965 24.1468 16.323 24.1269 16.2139C24.1071 16.1048 24.0228 15.8717 23.9434 15.6932C23.8145 15.4204 23.7947 15.3361 23.8244 15.1476L23.8591 14.9245C24.1021 15.4452 24.1914 15.6039 24.2212 15.6188C24.2509 15.6336 24.355 15.5394 24.4542 15.4055C24.6228 15.1923 24.6377 15.1476 24.6427 14.8501C24.6427 14.6616 24.6129 14.4633 24.5683 14.374C24.4989 14.2351 24.4989 14.2252 24.5832 14.2401C24.6427 14.25 24.6774 14.2153 24.6972 14.1161C24.7171 14.0417 24.7121 13.9277 24.6972 13.8583C24.6774 13.7888 24.6576 13.7045 24.6526 13.6648C24.6476 13.6202 24.7072 13.5756 24.8163 13.5508C24.9105 13.5309 25.0295 13.4714 25.0791 13.4268C25.1287 13.3772 25.1684 13.3177 25.1634 13.2879C25.1634 13.2582 25.2328 13.0945 25.3171 12.916C25.4411 12.6581 25.4659 12.549 25.4461 12.3705C25.4312 12.2465 25.3717 12.0035 25.3122 11.825C25.2427 11.6018 25.2229 11.4878 25.2626 11.453C25.2923 11.4233 25.3171 11.334 25.3171 11.2547C25.3221 11.1704 25.332 11.1456 25.3419 11.1902C25.3518 11.2398 25.3965 11.2795 25.4362 11.2795C25.4907 11.2795 25.5105 11.339 25.5105 11.5274C25.5105 11.7308 25.5304 11.7903 25.6246 11.8448C25.6841 11.8845 25.7486 11.9936 25.7734 12.0928C25.7932 12.192 25.8329 12.2812 25.8577 12.2961C25.8825 12.311 25.9519 12.2763 26.0065 12.2217C26.061 12.1672 26.1056 12.0581 26.1056 11.9738C26.1056 11.8944 26.0709 11.7556 26.0313 11.6762C25.9916 11.5969 25.9321 11.5274 25.9073 11.5274C25.8825 11.5274 25.8478 11.5671 25.8379 11.6117C25.8279 11.6613 25.818 11.6167 25.8131 11.5126C25.8131 11.4134 25.7833 11.2695 25.7535 11.1902C25.7188 11.1158 25.6891 10.9422 25.6891 10.8083C25.6792 10.6249 25.6147 10.4265 25.4312 10.0397C25.2923 9.75204 25.0493 9.30571 24.8906 9.04783C24.727 8.78995 24.4294 8.35354 24.2212 8.08079C24.0178 7.80803 23.5616 7.29227 23.2045 6.93521C22.8524 6.57815 22.3367 6.1219 22.0639 5.91858C21.7911 5.71525 21.449 5.4772 21.3101 5.38794C21.1663 5.29868 21.0175 5.22925 20.9878 5.22925C20.953 5.22925 20.8439 5.25404 20.7497 5.29372C20.6555 5.32843 20.4472 5.35819 20.2836 5.35819C20.0703 5.35323 19.986 5.37306 19.9662 5.42761C19.9463 5.48713 19.9314 5.48217 19.8769 5.40282C19.8323 5.33835 19.7827 5.31851 19.7331 5.33835C19.6884 5.36314 19.5893 5.33835 19.4851 5.27884C19.3909 5.22429 19.2818 5.19453 19.252 5.21437C19.2173 5.23421 19.138 5.29372 19.0785 5.34827C19.014 5.40778 18.9644 5.49209 18.9644 5.53672C18.9644 5.62103 18.9495 5.62103 18.766 5.5516C18.6569 5.51193 18.528 5.49209 18.4834 5.51193C18.4338 5.5268 18.3842 5.56648 18.3693 5.59127C18.3544 5.61607 18.2949 5.62103 18.2354 5.60615C18.161 5.58631 18.1313 5.5516 18.1461 5.50201C18.161 5.46233 18.1461 5.39786 18.1213 5.36314C18.0866 5.32347 18.0965 5.2838 18.1511 5.22925C18.2106 5.1747 18.3296 5.15982 18.5627 5.16478C18.7412 5.1747 18.9396 5.16478 19.0041 5.15486C19.0785 5.13503 19.1132 5.09535 19.1132 5.016ZM10.7073 6.24588C10.6677 6.231 10.5933 6.22109 10.5486 6.22604C10.4991 6.22604 10.4048 6.25084 10.3354 6.28059C10.266 6.31035 10.1519 6.33019 10.0726 6.32523C9.99818 6.32027 9.89404 6.34011 9.83949 6.36987C9.76509 6.40458 9.74526 6.46409 9.75518 6.57815C9.76014 6.68229 9.79485 6.74181 9.83949 6.74677C9.87916 6.74677 9.9585 6.77156 10.0131 6.7914C10.0825 6.82115 10.1817 6.7914 10.3602 6.69221C10.4991 6.61782 10.6478 6.51864 10.6974 6.47401C10.747 6.42938 10.7867 6.36491 10.7817 6.33019C10.7817 6.30043 10.747 6.26076 10.7073 6.24588ZM6.7499 7.29723C6.75486 7.22285 6.74495 7.16334 6.72511 7.1683C6.70527 7.1683 6.5565 7.32699 6.39285 7.52039C6.22919 7.71381 6.08041 7.90225 6.06058 7.93697C6.03578 7.97664 6.03082 8.01632 6.0457 8.0312C6.06058 8.04607 6.11017 8.03616 6.15976 8.01136C6.20439 7.98657 6.28374 7.95184 6.33334 7.93697C6.38293 7.91713 6.41764 7.85762 6.41764 7.76836C6.4226 7.67413 6.46723 7.60471 6.58129 7.53527C6.6904 7.46584 6.74495 7.39146 6.7499 7.29723ZM6.30357 8.27915C6.2887 8.1155 6.2639 8.05599 6.20935 8.05599C6.16472 8.05599 6.07545 8.13038 6.00603 8.21468C5.887 8.36346 5.88204 8.36842 5.9118 8.25436C5.93164 8.16509 5.92668 8.1403 5.88204 8.16509C5.84733 8.18989 5.66384 8.44281 5.47043 8.7354C5.28198 9.03295 4.98939 9.53879 4.82078 9.8661C4.64225 10.2232 4.51826 10.5306 4.51331 10.6348C4.51331 10.734 4.47363 10.8679 4.429 10.9323C4.38437 11.0018 4.30006 11.1505 4.24055 11.2646C4.186 11.3836 4.07194 11.7357 3.98763 12.0481C3.90829 12.3606 3.83886 12.6978 3.83886 12.792C3.83886 12.8862 3.86366 12.9805 3.89341 13.0003C3.92316 13.0251 3.9678 13.0053 3.99259 12.9656C4.02731 12.9061 4.03722 12.916 4.03722 13.0003C4.03722 13.0648 4.06202 13.1144 4.08681 13.1144C4.11657 13.1144 4.15624 13.0648 4.18104 13.0003C4.20583 12.9408 4.21575 12.8763 4.20583 12.8515C4.19592 12.8317 4.15128 12.8267 4.11161 12.8416C4.0521 12.8615 4.03722 12.8119 4.0521 12.554C4.06202 12.2664 4.08186 12.2118 4.28519 11.944C4.40421 11.7853 4.52818 11.582 4.55794 11.5026C4.58769 11.4233 4.66705 11.2497 4.73647 11.1158C4.80094 10.9869 4.87037 10.8827 4.89516 10.8827C4.915 10.8827 4.97451 10.8381 5.02906 10.7835C5.08362 10.729 5.12825 10.6298 5.12825 10.5604C5.12825 10.486 5.16792 10.4166 5.22743 10.3868C5.29356 10.3538 5.32661 10.3538 5.32661 10.3868C5.32661 10.4166 5.35637 10.4364 5.39108 10.4364C5.42084 10.4314 5.52003 10.3719 5.60929 10.2975C5.6936 10.2232 5.82253 10.124 5.89196 10.0744C5.98123 10.0149 6.0209 9.94544 6.0209 9.8413C6.0209 9.71732 6.00603 9.69749 5.92172 9.71732C5.86716 9.7322 5.81261 9.72724 5.79774 9.70245C5.78782 9.68261 5.81261 9.63301 5.86221 9.58838C5.90685 9.54375 5.96635 9.49912 5.99611 9.48424C6.02586 9.46936 6.03578 9.50407 6.0209 9.57846C5.99611 9.70245 6.00107 9.70245 6.19447 9.66773C6.30357 9.64789 6.44244 9.60822 6.5069 9.58838C6.59617 9.55367 6.616 9.50407 6.616 9.34538C6.616 9.21314 6.59121 9.13875 6.54162 9.12222C6.47715 9.10238 6.47715 9.08254 6.54162 8.98336C6.58129 8.92385 6.616 8.83459 6.616 8.78499C6.616 8.74036 6.57633 8.65605 6.5317 8.6015C6.48211 8.54695 6.41268 8.50232 6.38293 8.50232C6.34325 8.50232 6.31349 8.41801 6.30357 8.27915ZM25.5105 13.1739C25.5105 13.0499 25.4907 13.0152 25.4114 13.0152C25.3618 13.0152 25.3072 13.035 25.2973 13.0648C25.2824 13.0896 25.2527 13.2284 25.2328 13.3673C25.1932 13.6053 25.1932 13.6202 25.2874 13.6053C25.3419 13.5954 25.4114 13.5309 25.4461 13.4615C25.4808 13.3921 25.5105 13.2631 25.5105 13.1739ZM4.12649 13.2384C4.03722 13.1441 3.92316 13.0648 3.87853 13.0648C3.8339 13.0648 3.7843 13.0797 3.77438 13.0995C3.76447 13.1243 3.73471 13.2086 3.71487 13.2879C3.68016 13.4268 3.68512 13.4367 3.80415 13.4119C3.90333 13.3921 3.943 13.4119 3.98267 13.4962C4.01243 13.5607 4.08186 13.6103 4.13641 13.6103C4.20253 13.6103 4.2356 13.6433 4.2356 13.7095C4.2356 13.7739 4.27527 13.8186 4.34966 13.8285C4.40916 13.8434 4.49843 13.8483 4.54802 13.8434C4.59265 13.8384 4.63232 13.8136 4.63232 13.7839C4.63232 13.7541 4.65217 13.769 4.67696 13.8087C4.70672 13.8533 4.75135 13.8682 4.80094 13.8434C4.84557 13.8235 4.88029 13.764 4.88029 13.7095C4.88029 13.65 4.8307 13.5905 4.75631 13.5607C4.68688 13.5309 4.62241 13.4913 4.60753 13.4615C4.59265 13.4318 4.54306 13.4119 4.49843 13.4119C4.44884 13.4119 4.36949 13.4516 4.3199 13.5012C4.27172 13.544 4.24954 13.5637 4.24324 13.5595C4.23786 13.556 4.24402 13.535 4.25543 13.4962C4.27527 13.4417 4.23064 13.3524 4.12649 13.2384ZM4.07194 13.8583C4.08186 13.7789 4.06202 13.7095 4.03722 13.7095C4.00747 13.7095 3.97276 13.7392 3.95788 13.769C3.943 13.8037 3.93804 13.8731 3.94796 13.9227C3.95788 13.9723 3.98763 14.012 4.01243 14.012C4.04218 14.012 4.06698 13.9426 4.07194 13.8583ZM25.5403 14.1409C25.5254 14.0665 25.4758 14.007 25.4362 14.007C25.3965 14.007 25.3618 14.0467 25.3618 14.0913C25.3618 14.1409 25.3271 14.2599 25.2824 14.3542C25.208 14.5129 25.208 14.5426 25.2775 14.7261C25.3469 14.8997 25.3518 14.9394 25.2874 15.0584C25.2477 15.1377 25.2229 15.2319 25.2378 15.2716C25.2527 15.3113 25.2874 15.346 25.3122 15.346C25.337 15.346 25.3667 15.3163 25.3667 15.2815C25.3717 15.2518 25.3915 15.3014 25.4064 15.3956C25.4262 15.4898 25.4213 15.589 25.4014 15.6188C25.3766 15.6485 25.3618 15.713 25.3618 15.7675C25.3618 15.8221 25.4114 15.9213 25.4659 15.9907C25.5453 16.0899 25.5849 16.1048 25.6494 16.0601C25.704 16.0254 25.7387 15.9262 25.7486 15.7973C25.7535 15.6882 25.7387 15.5543 25.7089 15.5047C25.6792 15.4501 25.6792 15.4006 25.7139 15.3708C25.7387 15.341 25.7535 15.2468 25.7486 15.1526C25.7387 15.0584 25.704 14.9741 25.6742 14.9641C25.6395 14.9542 25.5998 14.9939 25.5849 15.0485C25.5701 15.103 25.5353 15.1476 25.5105 15.1476C25.4857 15.1476 25.461 15.1328 25.461 15.108C25.456 15.0881 25.5056 15.0286 25.5601 14.9741C25.6147 14.9195 25.6643 14.8402 25.6643 14.8005C25.6643 14.7608 25.6296 14.6914 25.5849 14.6517C25.5304 14.5972 25.5155 14.5327 25.5403 14.4286C25.5552 14.3492 25.5601 14.2203 25.5403 14.1409ZM3.67024 14.8749C3.72479 14.2748 3.71983 14.1062 3.69504 14.1062C3.67024 14.1062 3.63553 14.1806 3.62065 14.2649C3.60577 14.3542 3.5909 14.5823 3.58594 14.7757C3.58594 15.0336 3.60577 15.1427 3.66528 15.1972C3.73967 15.2617 3.74959 15.2617 3.78926 15.1972C3.81902 15.1427 3.83886 15.1774 3.8587 15.3212C3.87853 15.4303 3.86861 15.5989 3.83886 15.6932C3.8091 15.7874 3.75951 15.8965 3.72479 15.9362C3.69008 15.9808 3.67024 16.1246 3.68016 16.3081C3.68512 16.4767 3.72975 16.7445 3.76942 16.9082C3.8091 17.0718 3.91325 17.3942 3.99755 17.6272C4.08186 17.8603 4.21079 18.1232 4.28023 18.2124C4.34966 18.3066 4.46867 18.4703 4.54306 18.5844C4.61745 18.6984 4.69184 18.8918 4.70672 19.0158C4.7216 19.1398 4.77119 19.363 4.81582 19.5117C4.86045 19.6605 4.90012 19.8291 4.90508 19.8837C4.915 19.9382 4.95963 20.082 5.00426 20.206C5.0489 20.33 5.10841 20.5383 5.13321 20.6771C5.158 20.811 5.25719 21.0491 5.35141 21.1979C5.44563 21.3466 5.57954 21.5252 5.64896 21.5946C5.71839 21.664 5.7779 21.7384 5.7779 21.7682C5.7779 21.7979 5.85229 21.9169 5.94156 22.0409C6.03082 22.1649 6.25894 22.3682 6.4474 22.4922C6.63584 22.6212 6.89372 22.76 7.02266 22.8046C7.15656 22.8493 7.38468 22.884 7.53346 22.884C7.68223 22.884 7.80621 22.8642 7.80621 22.8344C7.80621 22.8046 7.71199 22.76 7.59297 22.7303C7.49645 22.7093 7.38217 22.6776 7.31625 22.6594C7.30427 22.6561 7.29389 22.6532 7.2855 22.6509C7.23095 22.636 7.13672 22.5964 7.07225 22.5567C7.00778 22.517 6.96315 22.4377 6.96315 22.3633C6.96315 22.274 6.91356 22.2095 6.78958 22.1401C6.65568 22.0657 6.616 22.0112 6.616 21.9021C6.616 21.8277 6.60113 21.7483 6.58129 21.7285C6.5565 21.7037 6.54162 21.6442 6.54162 21.5896C6.54162 21.5252 6.57633 21.4954 6.65072 21.4954C6.7499 21.4954 6.76478 21.4756 6.7499 21.297C6.74329 21.1648 6.75982 21.0987 6.7995 21.0987C6.83421 21.0987 6.87885 21.0243 6.89372 20.935C6.9086 20.8507 6.91356 20.7565 6.9086 20.7267C6.90364 20.697 6.92844 20.6127 6.96811 20.5383C7.02762 20.4143 7.02762 20.3697 6.94827 20.1763L6.86397 19.9581C7.11193 19.8043 7.22599 19.7597 7.27062 19.7597C7.32021 19.7597 7.37972 19.7051 7.40948 19.6357C7.43923 19.5663 7.45907 19.3679 7.45907 19.1894C7.45907 19.0109 7.42931 18.7679 7.3946 18.6439C7.34997 18.4653 7.34997 18.4009 7.3946 18.3314C7.42931 18.2868 7.49379 18.1777 7.53842 18.0984C7.58801 18.0091 7.62272 17.8256 7.62768 17.6421C7.63264 17.4041 7.60785 17.3049 7.5285 17.1958C7.46899 17.1214 7.36485 17.0222 7.29542 16.9825C7.22103 16.9429 7.12185 16.8486 7.06233 16.7693C6.98795 16.6701 6.92348 16.6354 6.80445 16.6354C6.68544 16.6404 6.61105 16.6056 6.54162 16.5114C6.48707 16.437 6.36805 16.3478 6.27878 16.3081C6.19447 16.2684 6.10521 16.199 6.09033 16.1494C6.07545 16.1048 6.00603 15.9411 5.93164 15.7923C5.86221 15.6436 5.75806 15.47 5.70351 15.4055C5.644 15.346 5.55474 15.2964 5.50019 15.2964C5.43571 15.2964 5.37125 15.2369 5.31174 15.1228C5.26711 15.0286 5.20264 14.9493 5.17784 14.9493C5.15305 14.9493 5.13321 14.865 5.13817 14.7658L5.15305 14.5773C4.61745 14.6071 4.54802 14.5972 4.51826 14.5327C4.49843 14.4881 4.45876 14.4633 4.43396 14.4781C4.40916 14.493 4.37941 14.4781 4.36949 14.4484C4.36453 14.4186 4.32486 14.4137 4.26535 14.4385C4.21575 14.4583 4.12649 14.5625 4.06698 14.6666C3.99755 14.7889 3.95126 14.8303 3.92812 14.7906C3.89837 14.741 3.86861 14.741 3.77934 14.8005L3.67024 14.8749ZM25.2229 16.0304C25.2031 15.9163 25.1634 15.8171 25.1336 15.8072C25.1039 15.7973 25.0593 15.8171 25.0345 15.8518C25.0179 15.875 24.9926 15.9158 24.9672 15.9565C24.9546 15.9769 24.9419 15.9973 24.9303 16.0155C24.8956 16.0701 24.851 16.1593 24.8262 16.2139C24.8014 16.2684 24.7121 16.3726 24.6228 16.447C24.5385 16.5263 24.4542 16.6552 24.4394 16.7445C24.4195 16.8338 24.4344 17.0272 24.4642 17.166C24.5088 17.3842 24.5435 17.4388 24.6526 17.4834C24.7319 17.5082 24.8361 17.5281 24.8906 17.5181C24.965 17.5082 24.9997 17.4487 25.0295 17.2553C25.0543 17.1164 25.1039 16.9627 25.1436 16.9082C25.1832 16.8536 25.213 16.8288 25.213 16.8586C25.213 16.8883 25.1783 17.0073 25.1386 17.1313C25.0989 17.2553 25.0642 17.3991 25.0642 17.4537C25.0642 17.5082 25.1039 17.5876 25.1535 17.6272C25.2031 17.6669 25.2576 17.7363 25.2725 17.776C25.289 17.8256 25.3155 17.8339 25.3518 17.8008C25.3766 17.7711 25.4114 17.5777 25.4312 17.3644C25.451 17.0768 25.4461 16.9825 25.3965 16.9776C25.3667 16.9726 25.3915 16.9577 25.461 16.9379C25.5453 16.9131 25.5949 16.923 25.6097 16.9726C25.6246 17.0073 25.6593 17.0371 25.6841 17.0321C25.7089 17.0272 25.7486 17.052 25.7684 17.0916C25.7883 17.1264 25.8081 17.2255 25.8081 17.3049C25.8031 17.3942 25.8478 17.4933 25.9073 17.5528C25.9916 17.6272 26.0065 17.6917 25.9866 17.8107C25.9717 17.905 25.9866 18.0289 26.0164 18.0984C26.0511 18.1678 26.0957 18.2223 26.1156 18.2223C26.1404 18.2223 26.1999 18.0289 26.2544 17.7859C26.272 17.7016 26.2908 17.6135 26.3084 17.531C26.3406 17.3805 26.3688 17.2485 26.3784 17.1908C26.3982 17.0569 26.3834 17.0272 26.2792 16.9825C26.2098 16.9528 26.1255 16.9379 26.0908 16.9429C26.061 16.9528 25.9866 16.9131 25.9321 16.8586C25.8726 16.7991 25.8378 16.7048 25.8428 16.6205C25.8527 16.5362 25.8378 16.4916 25.7932 16.5015C25.7635 16.5114 25.7089 16.5957 25.6742 16.6899C25.6395 16.7941 25.6147 16.8189 25.6147 16.7594C25.6147 16.7048 25.5948 16.6453 25.575 16.6255C25.5552 16.6056 25.4907 16.6106 25.4362 16.6354C25.3816 16.6552 25.3122 16.6602 25.2824 16.6453C25.2527 16.6255 25.213 16.5561 25.1981 16.4866C25.1832 16.4172 25.1882 16.3329 25.218 16.2982C25.2427 16.2635 25.2477 16.1494 25.2229 16.0304ZM25.4857 17.9595C25.4709 17.9149 25.4411 17.8752 25.4163 17.8752C25.3915 17.8752 25.3518 17.9099 25.3221 17.9496C25.2973 17.9893 25.2527 18.1132 25.2328 18.2273C25.1932 18.4058 25.1981 18.4356 25.2626 18.4157C25.3023 18.4009 25.3766 18.3116 25.4262 18.2174C25.4709 18.1281 25.5006 18.0091 25.4857 17.9595ZM25.1436 18.1331C25.1287 18.1033 25.094 18.0736 25.0741 18.0736C25.0493 18.0736 25.0146 18.0884 24.9898 18.1083C24.965 18.1232 24.9502 18.2025 24.9551 18.2819C24.9601 18.3562 24.9898 18.4207 25.0146 18.4207C25.0394 18.4207 25.089 18.3711 25.1188 18.3066C25.1485 18.2471 25.1584 18.1678 25.1436 18.1331ZM25.8329 18.6439C25.9073 18.4753 25.9023 18.4703 25.7833 18.4058C25.7188 18.3711 25.6296 18.3513 25.5899 18.3612C25.5502 18.3711 25.5056 18.4554 25.4907 18.5497C25.4659 18.6885 25.4411 18.7133 25.3618 18.6935C25.2824 18.6736 25.2427 18.7133 25.1634 18.867C25.1088 18.9761 25.0394 19.0753 25.0146 19.0902C24.9898 19.1051 24.9254 19.1993 24.8708 19.2985C24.8212 19.4026 24.7171 19.5167 24.6377 19.5564C24.5584 19.5911 24.4245 19.7051 24.3352 19.8043C24.241 19.9085 24.1567 20.0771 24.1269 20.206C24.1021 20.33 24.0476 20.5978 24.0029 20.8011C23.9583 21.0243 23.8839 21.2127 23.8244 21.2722C23.7699 21.3268 23.7252 21.421 23.7252 21.4805C23.7252 21.5549 23.755 21.5946 23.8095 21.5946C23.8591 21.5996 23.9583 21.5549 24.0327 21.4954C24.112 21.4409 24.1914 21.3962 24.2212 21.3962C24.2459 21.3962 24.3203 21.3367 24.3848 21.2574C24.4493 21.183 24.5733 21.0838 24.6576 21.0342C24.7766 20.9697 24.8212 20.9648 24.8361 21.0094C24.8493 21.0524 24.8807 21.0408 24.9303 20.9747C24.9749 20.9201 25.1436 20.6176 25.3023 20.3052C25.4659 19.9928 25.6593 19.5812 25.7337 19.3878C25.8428 19.11 25.8577 19.0208 25.8131 18.9266C25.7734 18.8422 25.7783 18.7778 25.8329 18.6439ZM18.4288 18.9166C18.3842 18.8323 18.3098 18.7679 18.2652 18.7679C18.2205 18.7679 18.161 18.7976 18.1362 18.8274C18.1114 18.8621 18.047 18.9761 17.9974 19.0803C17.9379 19.1993 17.8337 19.2985 17.7345 19.3431C17.6502 19.3828 17.561 19.4522 17.5461 19.4969C17.5262 19.5464 17.5411 19.6655 17.5758 19.7597C17.6205 19.8886 17.6254 19.963 17.5808 20.0424C17.5411 20.1316 17.5411 20.1961 17.6006 20.33C17.6403 20.4242 17.6601 20.5333 17.6453 20.5631C17.6304 20.5978 17.6502 20.6573 17.6849 20.692C17.7196 20.7267 17.8387 20.7466 17.9428 20.7416C18.0519 20.7317 18.1511 20.697 18.1759 20.6524C18.1957 20.6127 18.2304 20.5333 18.2503 20.4788C18.2701 20.4242 18.29 20.3449 18.2949 20.3052C18.3048 20.2655 18.3544 20.0523 18.4139 19.8341C18.4685 19.6159 18.5181 19.353 18.5181 19.2489C18.5181 19.1497 18.4784 18.996 18.4288 18.9166ZM14.1044 6.49377C14.0747 6.47889 14.0647 6.44914 14.0796 6.41938C14.0995 6.38963 14.154 6.36979 14.2036 6.36979C14.2681 6.36979 14.3127 6.41442 14.3276 6.48385C14.3425 6.54336 14.3871 6.62767 14.4268 6.66734C14.4714 6.70702 14.5061 6.77148 14.5012 6.80124C14.5012 6.83595 14.4466 6.87563 14.3772 6.8905C14.2945 6.90704 14.2284 6.97316 14.1788 7.08888C14.1342 7.19302 14.0697 7.26244 14.0201 7.26244C13.9705 7.2674 13.8416 7.29716 13.7325 7.33683C13.6234 7.3765 13.5292 7.39634 13.5192 7.38146C13.5143 7.37154 13.5887 7.32195 13.6829 7.27732C13.7771 7.22773 13.9209 7.08392 14.0052 6.95497C14.0846 6.82108 14.154 6.6723 14.154 6.61775C14.154 6.56319 14.1342 6.50864 14.1044 6.49377ZM17.4866 8.60143C17.5759 8.60638 17.68 8.57167 17.7197 8.52704C17.7544 8.48737 17.8238 8.45265 17.8684 8.45265C17.9131 8.45265 17.9875 8.51712 18.0321 8.60143C18.0966 8.70557 18.1015 8.75021 18.0569 8.75021C18.0271 8.75021 17.9627 8.73037 17.923 8.70557C17.8784 8.67581 17.8139 8.67581 17.7593 8.70557C17.7147 8.73037 17.675 8.79484 17.675 8.84939C17.675 8.90394 17.7296 9.02296 17.799 9.11222C17.8684 9.19653 17.9478 9.30067 17.9726 9.33539C18.0023 9.36514 18.0222 9.43457 18.0222 9.48416C18.0222 9.52879 18.0668 9.66766 18.1263 9.79163C18.1809 9.91561 18.2206 10.0446 18.2206 10.0793C18.2206 10.114 18.1462 10.1388 18.0321 10.1388C17.923 10.1437 17.7941 10.1041 17.7098 10.0396C17.6354 9.98504 17.5759 9.90569 17.5759 9.86602C17.5759 9.82635 17.6304 9.747 17.6998 9.69245C17.7693 9.6379 17.8238 9.55856 17.8238 9.51888C17.8238 9.4792 17.7395 9.3949 17.6354 9.33043C17.5312 9.261 17.4122 9.13206 17.3576 9.018C17.3081 8.9089 17.2833 8.775 17.2981 8.71549C17.3229 8.62622 17.3626 8.60143 17.4866 8.60143ZM15.2946 8.7998C15.2401 8.9089 15.1756 9.00808 15.1458 9.02296C15.1161 9.03783 15.0963 9.1023 15.0963 9.17174C15.0963 9.2858 15.1111 9.29572 15.3045 9.27092C15.4236 9.261 15.6071 9.23621 15.7162 9.21637C15.855 9.19157 15.9641 9.20645 16.0881 9.26596C16.1823 9.31059 16.3063 9.34531 16.3609 9.34531C16.4154 9.34531 16.4947 9.32051 16.5344 9.29572C16.5939 9.25604 16.5691 9.21141 16.3856 9.04775L16.2946 8.96745L16.2943 8.96715L16.2929 8.96587L16.2919 8.965C16.198 8.88213 16.1105 8.80479 16.0732 8.775C15.9988 8.71053 15.984 8.71053 15.9393 8.7998C15.9096 8.86427 15.8401 8.89898 15.7509 8.89898C15.6517 8.90394 15.5971 8.86922 15.5426 8.75021C15.5029 8.66589 15.4533 8.59647 15.4335 8.60143C15.4136 8.60143 15.3492 8.69069 15.2946 8.7998ZM12.3836 9.29572C12.4728 9.30067 12.572 9.26596 12.6117 9.22133C12.6464 9.18166 12.7059 9.14694 12.7456 9.14694C12.7853 9.14694 12.8497 9.21141 12.8894 9.29572C12.934 9.38498 13.0531 9.48912 13.1969 9.56352C13.3308 9.62302 13.4498 9.70733 13.4647 9.747C13.4895 9.80155 13.4548 9.81147 13.306 9.80651C13.1572 9.79659 13.1027 9.81147 13.0828 9.8809C13.063 9.92553 13.0828 10.0198 13.1175 10.0842C13.1572 10.1487 13.2266 10.2181 13.2713 10.2429C13.3209 10.2677 13.4052 10.2776 13.4597 10.2628C13.5143 10.2479 13.5589 10.2032 13.5589 10.1636C13.5589 10.1239 13.6035 10.0495 13.6581 10.0049C13.7126 9.95528 13.7573 9.86602 13.7573 9.80651C13.7573 9.74204 13.787 9.67757 13.8168 9.65774C13.8565 9.6379 13.911 9.67262 13.9556 9.74204C13.9953 9.80651 14.0647 9.96024 14.1044 10.0842C14.149 10.228 14.2135 10.3173 14.2631 10.3223C14.3127 10.3322 14.4218 10.2628 14.5111 10.1785C14.6549 10.0297 14.6648 9.99497 14.6351 9.80651C14.6152 9.67262 14.6202 9.59327 14.6499 9.59327C14.6797 9.59327 14.6995 9.67262 14.6995 9.76684C14.6995 9.90569 14.7392 9.98008 15.1211 10.3421L15.8897 10.3123V10.4611C15.8897 10.5454 15.8451 10.6992 15.8005 10.8083C15.7112 11.0066 15.7062 11.0066 15.4285 11.0066C15.25 11.0066 15.1359 10.9818 15.1211 10.9471C15.1062 10.9075 14.9971 10.8827 14.8334 10.8827C14.6797 10.8827 14.5359 10.8529 14.4764 10.8083C14.4218 10.7686 14.3276 10.7339 14.2631 10.7339C14.1937 10.7339 14.0945 10.8033 13.9904 10.9323C13.906 11.0364 13.8118 11.1306 13.7821 11.1306C13.7523 11.1306 13.6531 11.0711 13.5589 10.9967C13.4597 10.9223 13.306 10.8281 13.2118 10.7884C13.1175 10.7488 13.0084 10.6992 12.9737 10.6744C12.9291 10.6446 12.9291 10.6099 12.9886 10.5256C13.0431 10.4413 13.0481 10.3669 13.0134 10.238C12.9886 10.1437 12.934 10.0297 12.8894 9.99001C12.815 9.92553 12.7704 9.92553 12.5621 9.98008C12.4282 10.0098 12.2348 10.0396 12.1307 10.0396C12.0216 10.0396 11.8579 10.0941 11.5008 10.3074L11.6347 10.1487C11.719 10.0545 11.7637 9.95528 11.7488 9.90569C11.7339 9.8561 11.7538 9.7718 11.7934 9.71725C11.8314 9.66657 11.85 9.64179 11.8598 9.64488C11.8691 9.64784 11.8704 9.67634 11.8728 9.73212C11.8728 9.79163 11.8926 9.85114 11.9224 9.86602C11.9521 9.8809 12.0067 9.86106 12.0464 9.83131C12.091 9.79659 12.1207 9.71229 12.1158 9.64286C12.1059 9.57343 12.1307 9.46928 12.1654 9.40978C12.21 9.32547 12.2695 9.29572 12.3836 9.29572ZM24.9998 10.7835C24.9849 10.8231 24.9948 10.8926 25.0295 10.9372C25.0642 10.9818 25.1386 11.0314 25.1981 11.0513C25.2874 11.0761 25.3122 11.0612 25.3122 10.9818C25.3122 10.9075 25.2874 10.8876 25.213 10.9075C25.1436 10.9273 25.1039 10.9025 25.0742 10.8231C25.0394 10.7339 25.0246 10.724 24.9998 10.7835ZM17.8684 11.7406C17.7891 11.6216 17.7246 11.5174 17.7246 11.5026C17.7246 11.4877 17.7445 11.4778 17.7742 11.4778C17.799 11.4778 17.8337 11.5174 17.8486 11.567C17.8585 11.6117 17.9875 11.7654 18.1313 11.9043C18.2751 12.0431 18.4288 12.1671 18.4685 12.182C18.528 12.2068 18.5231 12.2316 18.3197 12.4448L18.1958 12.296C18.1313 12.2167 18.0619 12.1026 18.042 12.0481C18.0222 11.9935 17.9428 11.8547 17.8684 11.7406ZM15.9443 11.8348C15.9443 11.8695 16.103 12.301 16.3013 12.7919C16.4997 13.2829 16.7229 13.7888 16.7973 13.9226C16.8716 14.0516 16.946 14.1508 16.9609 14.1408C16.9758 14.1359 16.9609 14.007 16.9312 13.8582C16.8964 13.6747 16.8121 13.4962 16.6733 13.3127C16.5592 13.1639 16.4253 12.9159 16.3757 12.7672C16.3261 12.6184 16.2418 12.4051 16.1873 12.296C16.1377 12.1869 16.0782 12.0332 16.0534 11.9538C16.0335 11.8745 15.9988 11.8001 15.984 11.7902C15.9641 11.7803 15.9492 11.8001 15.9443 11.8348Z" fill="#4CFCC5"/>
<path d="M12.5374 9.7569C12.5225 9.67755 12.5324 9.56845 12.5621 9.50398C12.6018 9.42463 12.6564 9.39488 12.7308 9.40479C12.8151 9.41471 12.8448 9.45935 12.8547 9.59324C12.8597 9.68747 12.8399 9.79657 12.8051 9.83129C12.7704 9.866 12.701 9.89576 12.6564 9.8908C12.6018 9.8908 12.5572 9.83625 12.5374 9.7569Z" fill="#4CFCC5"/>
</g>
<defs>
<linearGradient id="paint0_linear_4506_9440" x1="8.03165" y1="0" x2="8.03165" y2="30" gradientUnits="userSpaceOnUse">
<stop stop-color="#7FC7FF"/>
<stop offset="1" stop-color="#b4cbf4"/>
</linearGradient>
<linearGradient id="paint1_linear_4506_9440" x1="26.873" y1="25.9634" x2="26.873" y2="4.03673" gradientUnits="userSpaceOnUse">
<stop stop-color="#7FC7FF"/>
<stop offset="1" stop-color="#b4cbf4"/>
</linearGradient>
<clipPath id="clip0_4506_9440">
<rect width="30" height="30" fill="white"/>
</clipPath>
</defs>
</svg>
