<svg width="25" height="25" viewBox="0 0 25 25" fill="none" xmlns="http://www.w3.org/2000/svg">
<g clip-path="url(#clip0_2579_10883)">
<path fill-rule="evenodd" clip-rule="evenodd" d="M12.5001 25C19.4036 25 25.0001 19.4035 25.0001 12.5C25.0001 5.59644 19.4036 0 12.5001 0C5.59645 0 0 5.59644 0 12.5C0 19.4035 5.59645 25 12.5001 25ZM17.4831 11.2244C17.8133 10.8862 18.2619 10.6693 18.7717 10.6693C20.653 10.6706 21.2778 13.256 19.5809 14.1498C19.6556 14.4259 19.6858 14.7333 19.6858 15.0265C19.6858 17.9519 16.4742 20.3223 12.514 20.3223C8.57063 20.3223 5.35903 17.9519 5.35903 15.0265C5.35903 14.7333 5.3866 14.4395 5.44781 14.1641C3.7159 13.2736 4.33535 10.6693 6.22666 10.6693C6.73649 10.6693 7.20259 10.8862 7.53283 11.2386C8.75088 10.3755 10.3705 9.82112 12.1704 9.74426L13.2047 4.94089C13.2491 4.7695 13.4126 4.64706 13.5794 4.69263L16.8932 5.44626C17.1185 5.00279 17.5705 4.67835 18.0944 4.67835C18.8464 4.67835 19.4443 5.31023 19.4443 6.06454C19.4443 6.81885 18.8423 7.45073 18.0938 7.45073C17.3593 7.45073 16.7607 6.83518 16.7607 6.08154L13.7603 5.39049L12.818 9.74767C14.632 9.80684 16.269 10.3619 17.4831 11.2244ZM9.54651 12.9628C8.7946 12.9628 8.196 13.5811 8.196 14.3491C8.196 15.1033 8.79797 15.7217 9.54651 15.7182C10.2817 15.7182 10.8803 15.1033 10.8803 14.3491C10.8803 13.5771 10.281 12.9628 9.54651 12.9628ZM9.51495 17.6125C10.7538 18.883 14.248 18.883 15.4862 17.6125C15.622 17.4907 15.622 17.2745 15.4828 17.1344C15.3638 17.0119 15.1526 17.0119 15.0335 17.1344C14.0468 18.1465 10.9098 18.1294 9.96422 17.1344C9.84516 17.0119 9.63401 17.0119 9.51495 17.1344C9.37841 17.2737 9.37841 17.4901 9.51495 17.6125ZM14.1256 14.3531C14.1256 15.1068 14.7241 15.7209 15.4586 15.7209C16.2071 15.7209 16.8058 15.1033 16.8091 14.3531C16.8091 13.5811 16.2071 12.9669 15.4586 12.9669C14.7241 12.9669 14.1256 13.5852 14.1256 14.3531Z" fill="#7FC7FF"/>
</g>
<defs>
<clipPath id="clip0_2579_10883">
<rect width="25" height="25" fill="white"/>
</clipPath>
</defs>
</svg>
