<svg width="31" height="31" viewBox="0 0 31 31" fill="none" xmlns="http://www.w3.org/2000/svg">
<path fill-rule="evenodd" clip-rule="evenodd" d="M15.4999 31C24.0604 31 31 24.0603 31 15.4997C31 6.93971 24.0604 0 15.4999 0C6.93959 0 0 6.93971 0 15.4997C0 24.0603 6.93959 31 15.4999 31ZM21.6527 9.93093C22.4377 10.5285 23.4189 10.8841 24.48 10.8841C24.48 10.8841 24.491 10.8841 24.4874 10.8801V11.7054V13.9273C23.4516 13.9273 22.4413 13.7253 21.4892 13.3186C20.875 13.0582 20.3044 12.7246 19.7848 12.3176L19.7993 19.159C19.792 20.6988 19.1888 22.1472 18.0949 23.2359C17.2045 24.1232 16.0779 24.688 14.8568 24.8709C14.5698 24.9153 14.2753 24.9369 13.981 24.9369C12.6728 24.9369 11.4298 24.5082 10.4159 23.7197C10.2233 23.5695 10.0416 23.4083 9.86715 23.2359C8.68246 22.0555 8.0719 20.4534 8.17366 18.77C8.25362 17.4874 8.76236 16.2625 9.60913 15.3058C10.7321 14.0371 12.302 13.3333 13.981 13.3333C14.279 13.3333 14.5698 13.355 14.8568 13.3992V14.2164V16.5008C14.5843 16.4126 14.2936 16.3612 13.9919 16.3612C12.4583 16.3612 11.219 17.6264 11.2409 19.1736C11.2554 20.1672 11.7896 21.0322 12.5819 21.5089C12.9561 21.7326 13.3814 21.8722 13.8394 21.8979C14.1954 21.9195 14.5371 21.8685 14.8568 21.7623C15.9507 21.3956 16.7429 20.3576 16.7429 19.1334L16.7466 14.5541V6.19102H19.7811C19.7837 6.40566 19.7989 6.61676 19.8281 6.82282C19.8403 6.90897 19.8549 6.99412 19.872 7.07826C20.101 8.23706 20.7514 9.24522 21.6527 9.93093Z" fill="#7FC7FF"/>
</svg>
