<svg width="25" height="25" viewBox="0 0 25 25" fill="none" xmlns="http://www.w3.org/2000/svg">
<g clip-path="url(#clip0_2579_10887)">
<path fill-rule="evenodd" clip-rule="evenodd" d="M12.5001 25C19.4036 25 25.0001 19.4035 25.0001 12.5C25.0001 5.59644 19.4036 0 12.5001 0C5.59645 0 0 5.59644 0 12.5C0 19.4035 5.59645 25 12.5001 25ZM19.4138 7.90531C19.6688 7.83153 19.9185 7.74064 20.1612 7.63297C20.2628 7.588 20.3816 7.61547 20.453 7.70042C20.5244 7.78532 20.5311 7.90721 20.4694 7.99944C20.0635 8.60671 19.5646 9.13506 18.9852 9.57166C18.988 9.66322 18.9893 9.7552 18.9893 9.84624C18.9893 12.0253 18.147 14.2307 16.6783 15.8969C15.5005 17.2331 13.3874 18.8259 10.0096 18.8259C8.29145 18.8259 6.6184 18.3355 5.17149 17.4078C5.07373 17.3451 5.03225 17.2232 5.07138 17.114C5.11052 17.0047 5.22039 16.9368 5.33531 16.9504C5.56663 16.9778 5.80299 16.9917 6.038 16.9917C7.1643 16.9917 8.23721 16.6838 9.17541 16.0962C8.04422 15.8418 7.10851 15.0072 6.74508 13.8725C6.71821 13.7887 6.7375 13.697 6.79583 13.6311C6.85406 13.5653 6.94285 13.5351 7.0292 13.5516C7.11295 13.5676 7.19725 13.5798 7.2816 13.5882C6.29974 13.0027 5.65752 11.9283 5.65752 10.7351C5.65752 10.7202 5.65752 10.7055 5.65786 10.6908C5.65986 10.6035 5.70737 10.5236 5.78314 10.4802C5.85887 10.4368 5.9519 10.4361 6.02813 10.4785C6.17011 10.5574 6.31887 10.6237 6.47217 10.6769C5.96801 10.0842 5.68259 9.3257 5.68259 8.52629C5.68259 7.93936 5.83799 7.36251 6.13193 6.85813C6.1731 6.78749 6.24634 6.74153 6.32785 6.73514C6.40931 6.72861 6.48888 6.76277 6.54053 6.82613C7.98978 8.60386 10.1003 9.71968 12.3704 9.91895C12.3522 9.7777 12.3432 9.63436 12.3432 9.4903C12.3432 7.66098 13.8315 6.1727 15.6609 6.1727C16.5276 6.1727 17.3659 6.51594 17.9832 7.11907C18.5959 6.98406 19.1803 6.7532 19.7219 6.43193C19.811 6.37914 19.9235 6.38686 20.0043 6.45137C20.0854 6.51584 20.118 6.62372 20.0865 6.72228C19.946 7.162 19.7158 7.56381 19.4138 7.90531Z" fill="#7FC7FF"/>
</g>
<defs>
<clipPath id="clip0_2579_10887">
<rect width="25" height="25" fill="white"/>
</clipPath>
</defs>
</svg>
