<svg width="25" height="25" viewBox="0 0 25 25" fill="none" xmlns="http://www.w3.org/2000/svg">
<g clip-path="url(#clip0_2579_10889)">
<path fill-rule="evenodd" clip-rule="evenodd" d="M0 12.5C0 5.5975 5.5975 0 12.5001 0C19.4026 0 25.0001 5.5975 25.0001 12.5C25.0001 19.4025 19.4026 25 12.5001 25C5.5975 25 0 19.4025 0 12.5ZM19.989 16.2703C20.3106 15.0478 20.3106 12.5128 20.3106 12.5128C20.3106 12.5128 20.3236 9.96509 19.989 8.74272C19.8088 8.07362 19.2812 7.54586 18.6121 7.3658C17.3896 7.03126 12.5001 7.03126 12.5001 7.03126C12.5001 7.03126 7.61032 7.03126 6.3879 7.35303C5.73159 7.53308 5.19104 8.07362 5.01099 8.74272C4.68922 9.96509 4.68922 12.5 4.68922 12.5C4.68922 12.5 4.68922 15.0478 5.01099 16.2573C5.19124 16.9263 5.71881 17.4542 6.3879 17.6343C7.6231 17.9687 12.5001 17.9687 12.5001 17.9687C12.5001 17.9687 17.3896 17.9687 18.6121 17.647C19.2812 17.467 19.8088 16.9394 19.989 16.2703ZM15.0089 12.5001L10.9429 14.842V10.1583L15.0089 12.5001Z" fill="#7FC7FF"/>
</g>
<defs>
<clipPath id="clip0_2579_10889">
<rect width="25" height="25" fill="white"/>
</clipPath>
</defs>
</svg>
