<svg width="14" height="14" viewBox="0 0 14 14" fill="none" xmlns="http://www.w3.org/2000/svg" preserveAspectRatio="xMidYMid meet">
<path d="M2.91666 12.8334H0V5.83334H2.91666V12.8334ZM13.1921 7.92634C12.6922 7.85926 12.8549 7.49816 13.2102 7.3885C13.5141 7.29516 14 7.09684 14 6.50766C14 6.11566 13.7084 5.5965 12.6753 5.6385C11.9589 5.66766 10.5368 5.523 9.77084 5.12226C10.2993 2.98958 10.1722 0 8.78616 0C7.85634 0 7.68016 1.05408 7.40076 2.02358C6.6885 4.49808 5.46876 5.5335 4.08334 6.03984V12.3854C6.6395 12.7943 7.78458 14 10.2112 14C12.0767 14 13.0415 12.9879 13.0415 12.4448C13.0415 12.2495 12.8829 12.1105 12.4815 12.0796C12.0086 12.0436 12.0535 11.606 12.4996 11.5237C13.2394 11.3873 13.5648 10.9905 13.5648 10.6236C13.5648 10.3151 13.3338 10.0276 12.9244 9.93472C12.4361 9.82455 12.537 9.49316 12.9425 9.46108C13.6034 9.40858 13.9271 9.01542 13.9271 8.63858C13.9271 8.309 13.6797 7.99166 13.1921 7.92634Z" fill="white"/>
</svg>
