<svg width="55" height="52" viewBox="0 0 55 52" fill="none" xmlns="http://www.w3.org/2000/svg">
<path d="M50.8786 25.9836H45.0189C43.2697 25.9836 41.8512 27.349 41.8512 29.0328V37.2161C41.8512 38.8999 40.4326 40.2653 38.6816 40.2653H15.3683C13.6156 40.2653 12.1988 41.6283 12.1988 43.3121V48.9508C12.1988 50.6346 13.6156 52 15.3683 52H40.0311C41.7804 52 43.1795 50.6346 43.1795 48.9508V44.4299C43.1795 42.7461 44.5998 41.553 46.349 41.553H50.8769C52.6297 41.553 54.0464 40.185 54.0464 38.5037V28.9997C54.0464 27.3159 52.6296 25.9859 50.8786 25.9859V25.9836ZM12.1988 14.7841C12.1988 13.1003 13.6138 11.7348 15.3666 11.7348H38.6658C40.4185 11.7348 41.8353 10.3694 41.8353 8.68559V3.04926C41.8353 1.36545 40.4185 0 38.6658 0H14.0153C12.2642 0 10.8475 1.36545 10.8475 3.04926V7.3932C10.8475 9.07701 9.42722 10.4402 7.67796 10.4402H3.16951C1.41849 10.4402 0 11.8056 0 13.4894V23.0027C0 24.6866 1.42382 25.9836 3.17307 25.9836H9.03461C10.7856 25.9836 12.2041 24.6181 12.2041 22.9343L12.1988 14.7864V14.7841ZM24.2667 20.0571H29.8948C31.7307 20.0571 33.2181 21.491 33.2181 23.255V28.6697C33.2181 30.4336 31.7271 31.8675 29.8929 31.8675H24.2667C22.4308 31.8675 20.9433 30.4336 20.9433 28.6697V23.255C20.9433 21.4887 22.4343 20.0571 24.2667 20.0571Z" fill="white"/>
</svg>
