<svg width="505" height="290" viewBox="0 0 505 290" fill="none" xmlns="http://www.w3.org/2000/svg">
<g opacity="0.5">
<path d="M0.793844 223.785C5.21772 219.254 28.6651 120.456 142.337 170.594C256.009 220.732 328.968 236.652 375.392 186.837C412.531 146.986 475.894 165.483 502.932 179.713" stroke="url(#paint0_linear_2164_4870)"/>
<path d="M0.968649 238.398C5.39253 233.867 28.8399 135.068 142.512 185.206C256.183 235.344 329.143 251.264 375.567 201.45C412.706 161.598 476.068 180.096 503.107 194.326" stroke="url(#paint1_linear_2164_4870)"/>
<path d="M1.16567 254.856C5.58955 250.325 29.037 151.527 142.709 201.665C256.38 251.803 329.34 267.723 375.764 217.908C412.903 178.057 476.265 196.554 503.304 210.785" stroke="url(#paint2_linear_2164_4870)"/>
<path d="M1.36562 271.572C5.7895 267.041 29.2369 168.243 142.909 218.381C256.58 268.519 329.54 284.439 375.964 234.624C413.103 194.772 476.465 213.27 503.504 227.5" stroke="url(#paint3_linear_2164_4870)"/>
<path d="M1.58095 289.556C6.00483 285.025 29.4522 186.227 143.124 236.365C256.796 286.503 329.755 302.423 376.179 252.608C413.318 212.757 476.681 231.254 503.72 245.485" stroke="url(#paint4_linear_2164_4870)"/>
</g>
<path d="M376.499 84.9996C376.499 127.249 342.249 161.5 299.999 161.5C257.749 161.5 223.499 127.249 223.499 84.9996C223.499 42.7499 257.749 8.49963 299.999 8.49963C342.249 8.49963 376.499 42.7499 376.499 84.9996Z" fill="white"/>
<path fill-rule="evenodd" clip-rule="evenodd" d="M300 161.5L300 8.49987C342.25 8.49987 376.5 42.7501 376.5 84.9999C376.5 127.25 342.25 161.5 300 161.5Z" fill="#E0E0E0" fill-opacity="0.5"/>
<path fill-rule="evenodd" clip-rule="evenodd" d="M300 159.8C341.311 159.8 374.8 126.311 374.8 85C374.8 43.6891 341.311 10.2 300 10.2C258.689 10.2 225.2 43.6891 225.2 85C225.2 126.311 258.689 159.8 300 159.8ZM300 170C346.944 170 385 131.944 385 85C385 38.0558 346.944 0 300 0C253.056 0 215 38.0558 215 85C215 131.944 253.056 170 300 170Z" fill="#b4cbf4"/>
<path fill-rule="evenodd" clip-rule="evenodd" d="M256.213 46.1441C258.377 43.7408 262.235 43.6872 264.831 46.0242L298.668 76.4918C301.264 78.8288 301.614 82.6717 299.45 85.0749C297.286 87.4782 293.428 87.5319 290.832 85.1948L256.995 54.7273C254.399 52.3902 254.049 48.5474 256.213 46.1441Z" fill="#28BCA9"/>
<path fill-rule="evenodd" clip-rule="evenodd" d="M294.689 90.8456C292.402 88.5588 292.402 84.8513 294.689 82.5646L319.199 58.0545C321.486 55.7677 325.193 55.7677 327.48 58.0545C329.767 60.3412 329.767 64.0487 327.48 66.3355L302.97 90.8456C300.683 93.1323 296.976 93.1323 294.689 90.8456Z" fill="#28BCA9"/>
<circle cx="299.999" cy="84.9997" r="11.7111" fill="#7FC7FF"/>
<rect x="296.487" y="20.5891" width="7.02667" height="16.3956" rx="3.51333" fill="#141616"/>
<rect x="296.487" y="133.016" width="7.02667" height="16.3956" rx="3.51333" fill="#141616"/>
<rect x="364.411" y="81.4863" width="7.02667" height="16.3956" rx="3.51333" transform="rotate(90 364.411 81.4863)" fill="#141616"/>
<rect x="251.985" y="81.4872" width="7.02667" height="16.3956" rx="3.51333" transform="rotate(90 251.985 81.4872)" fill="#141616"/>
<path d="M160.9 107.011H170.577V269.378H160.9V107.011Z" fill="#7FC7FF"/>
<path d="M169.194 237.232C179.939 244.434 196.093 245.186 210.891 237.975C225.688 230.764 235.05 217.578 235.999 204.677C225.255 197.476 209.1 196.723 194.302 203.934C179.505 211.145 170.143 224.332 169.194 237.232Z" fill="#7FC7FF"/>
<path d="M161.806 237.232C151.061 244.434 134.906 245.186 120.109 237.975C105.311 230.764 95.9493 217.578 95 204.677C105.745 197.476 121.899 196.723 136.697 203.934C151.494 211.145 160.856 224.332 161.806 237.232Z" fill="#7FC7FF"/>
<path d="M224.397 159.825C223.611 170.515 215.853 181.442 203.591 187.418C191.329 193.393 177.943 192.77 169.039 186.802C169.825 176.112 177.583 165.185 189.845 159.21C202.107 153.234 215.493 153.858 224.397 159.825Z" fill="#7FC7FF"/>
<path d="M107.558 159.825C108.344 170.515 116.102 181.442 128.364 187.418C140.626 193.393 154.012 192.77 162.916 186.802C162.13 176.112 154.372 165.185 142.11 159.21C129.848 153.234 116.461 153.858 107.558 159.825Z" fill="#7FC7FF"/>
<path d="M165.533 116.807C173.488 112.221 179.031 102.167 179.077 90.4819C179.122 78.7968 173.658 68.7007 165.739 64.0526C157.784 68.6389 152.241 78.6923 152.195 90.3776C152.15 102.063 157.614 112.159 165.533 116.807Z" fill="#7FC7FF"/>
<path d="M211.89 121.322C211.272 129.723 205.175 138.311 195.538 143.007C185.902 147.703 175.381 147.213 168.383 142.523C169.002 134.122 175.098 125.534 184.735 120.838C194.372 116.142 204.893 116.632 211.89 121.322Z" fill="#7FC7FF"/>
<path d="M120.065 121.322C120.683 129.723 126.78 138.311 136.417 143.007C146.053 147.703 156.574 147.213 163.572 142.523C162.953 134.122 156.857 125.534 147.22 120.838C137.583 116.142 127.062 116.632 120.065 121.322Z" fill="#7FC7FF"/>
<path opacity="0.2" fill-rule="evenodd" clip-rule="evenodd" d="M165.201 269.325V64.3208C165.379 64.2111 165.558 64.1041 165.739 64C173.658 68.6481 179.122 78.7442 179.077 90.4293C179.042 99.4413 175.737 107.483 170.578 112.794V134.521C173.243 128.995 178.167 123.986 184.736 120.785C194.373 116.089 204.893 116.579 211.891 121.269C211.273 129.67 205.176 138.258 195.539 142.954C186.863 147.182 177.471 147.207 170.578 143.747V179.621C173.509 171.433 180.317 163.8 189.845 159.157C202.107 153.182 215.494 153.805 224.398 159.773C223.611 170.463 215.853 181.39 203.591 187.365C192.017 193.006 179.44 192.766 170.578 187.702V229.993C173.814 219.581 182.257 209.752 194.303 203.882C209.1 196.671 225.255 197.423 236 204.625C235.05 217.525 225.689 230.712 210.891 237.922C196.716 244.83 181.295 244.43 170.578 238.053V269.325H165.201Z" fill="black"/>
<path fill-rule="evenodd" clip-rule="evenodd" d="M216.016 288.422H113.588C116.763 273.267 138.482 261.54 164.802 261.54C191.122 261.54 212.841 273.267 216.016 288.422Z" fill="#F8B893"/>
<path d="M165.201 288.422V261.541C191.341 261.659 212.856 273.344 216.015 288.422H165.201Z" fill="#DD8958"/>
<defs>
<linearGradient id="paint0_linear_2164_4870" x1="251.297" y1="154.429" x2="252.091" y2="220.779" gradientUnits="userSpaceOnUse">
<stop stop-color="#7FC7FF"/>
<stop offset="1" stop-color="#b4cbf4"/>
</linearGradient>
<linearGradient id="paint1_linear_2164_4870" x1="251.472" y1="169.041" x2="252.266" y2="235.391" gradientUnits="userSpaceOnUse">
<stop stop-color="#7FC7FF"/>
<stop offset="1" stop-color="#b4cbf4"/>
</linearGradient>
<linearGradient id="paint2_linear_2164_4870" x1="251.669" y1="185.5" x2="252.463" y2="251.85" gradientUnits="userSpaceOnUse">
<stop stop-color="#7FC7FF"/>
<stop offset="1" stop-color="#b4cbf4"/>
</linearGradient>
<linearGradient id="paint3_linear_2164_4870" x1="251.869" y1="202.216" x2="252.663" y2="268.566" gradientUnits="userSpaceOnUse">
<stop stop-color="#7FC7FF"/>
<stop offset="1" stop-color="#b4cbf4"/>
</linearGradient>
<linearGradient id="paint4_linear_2164_4870" x1="252.084" y1="220.2" x2="252.878" y2="286.55" gradientUnits="userSpaceOnUse">
<stop stop-color="#7FC7FF"/>
<stop offset="1" stop-color="#b4cbf4"/>
</linearGradient>
</defs>
</svg>
