<svg width="115" height="115" viewBox="0 0 115 115" fill="none" xmlns="http://www.w3.org/2000/svg">
<circle cx="57.5" cy="57.5" r="57.5" fill="#141616"/>
<rect x="24" y="26.4392" width="24.6822" height="29.6186" rx="3" fill="white"/>
<circle cx="31.8294" cy="34.0147" r="4.35525" fill="#b4cbf4"/>
<circle cx="37.1607" cy="37.7054" r="5.33133" fill="url(#paint0_linear_3354_9023)"/>
<circle cx="42.4921" cy="41.2043" r="2.71528" fill="#7FC7FF"/>
<path fill-rule="evenodd" clip-rule="evenodd" d="M27.7686 46.9889C27.7686 46.8321 27.8956 46.7051 28.0524 46.7051H44.6291C44.7858 46.7051 44.9129 46.8321 44.9129 46.9889C44.9129 47.1456 44.7858 47.2727 44.6291 47.2727H28.0524C27.8956 47.2727 27.7686 47.1456 27.7686 46.9889Z" fill="#1E2121"/>
<path fill-rule="evenodd" clip-rule="evenodd" d="M27.7686 49.3763C27.7686 49.2196 27.8956 49.0925 28.0524 49.0925H44.6291C44.7858 49.0925 44.9129 49.2196 44.9129 49.3763C44.9129 49.5331 44.7858 49.6601 44.6291 49.6601H28.0524C27.8956 49.6601 27.7686 49.5331 27.7686 49.3763Z" fill="#1E2121"/>
<path fill-rule="evenodd" clip-rule="evenodd" d="M27.7686 51.9803C27.7686 51.8236 27.8956 51.6965 28.0524 51.6965H44.6291C44.7858 51.6965 44.9129 51.8236 44.9129 51.9803C44.9129 52.1371 44.7858 52.2641 44.6291 52.2641H28.0524C27.8956 52.2641 27.7686 52.1371 27.7686 51.9803Z" fill="#1E2121"/>
<rect x="67.1938" y="60.8181" width="24.6822" height="29.6186" rx="3" fill="white"/>
<circle cx="75.0232" cy="68.3936" r="4.35525" fill="#b4cbf4"/>
<circle cx="80.3545" cy="72.084" r="5.33133" fill="url(#paint1_linear_3354_9023)"/>
<circle cx="85.6857" cy="75.5832" r="2.71528" fill="#7FC7FF"/>
<path fill-rule="evenodd" clip-rule="evenodd" d="M70.9624 81.3678C70.9624 81.211 71.0895 81.084 71.2462 81.084H87.823C87.9797 81.084 88.1068 81.211 88.1068 81.3678C88.1068 81.5245 87.9797 81.6516 87.823 81.6516H71.2462C71.0895 81.6516 70.9624 81.5245 70.9624 81.3678Z" fill="#1E2121"/>
<path fill-rule="evenodd" clip-rule="evenodd" d="M70.9624 83.755C70.9624 83.5983 71.0895 83.4712 71.2462 83.4712H87.823C87.9797 83.4712 88.1068 83.5983 88.1068 83.755C88.1068 83.9117 87.9797 84.0388 87.823 84.0388H71.2462C71.0895 84.0388 70.9624 83.9117 70.9624 83.755Z" fill="#1E2121"/>
<path fill-rule="evenodd" clip-rule="evenodd" d="M70.9624 86.3592C70.9624 86.2025 71.0895 86.0754 71.2462 86.0754H87.823C87.9797 86.0754 88.1068 86.2025 88.1068 86.3592C88.1068 86.516 87.9797 86.643 87.823 86.643H71.2462C71.0895 86.643 70.9624 86.516 70.9624 86.3592Z" fill="#1E2121"/>
<path d="M57.9886 86.9276C58.5743 86.3418 58.5743 85.392 57.9886 84.8063C57.4028 84.2205 56.453 84.2205 55.8672 84.8063L57.9886 86.9276ZM36.6618 65.6009L24.0134 77.4337L40.5852 82.4712L36.6618 65.6009ZM55.8672 84.8063C50.8567 89.8168 42.733 89.8168 37.7225 84.8063L35.6012 86.9276C41.7833 93.1097 51.8065 93.1097 57.9886 86.9276L55.8672 84.8063ZM37.7225 84.8063C35.8526 82.9363 34.6823 80.6369 34.2075 78.2265L31.2641 78.8063C31.8503 81.7824 33.2974 84.6238 35.6012 86.9276L37.7225 84.8063Z" fill="#b4cbf4"/>
<path d="M57.8874 30.0724C57.3016 30.6582 57.3016 31.608 57.8874 32.1937C58.4732 32.7795 59.423 32.7795 60.0087 32.1937L57.8874 30.0724ZM79.2141 51.3991L91.8626 39.5663L75.2908 34.5288L79.2141 51.3991ZM60.0087 32.1937C65.0193 27.1832 73.1429 27.1832 78.1535 32.1937L80.2748 30.0724C74.0927 23.8903 64.0695 23.8903 57.8874 30.0724L60.0087 32.1937ZM78.1535 32.1937C80.0234 34.0637 81.1937 36.3631 81.6684 38.7735L84.6119 38.1937C84.0257 35.2176 82.5786 32.3762 80.2748 30.0724L78.1535 32.1937Z" fill="#b4cbf4"/>
<defs>
<linearGradient id="paint0_linear_3354_9023" x1="37.1607" y1="32.374" x2="37.1607" y2="43.0367" gradientUnits="userSpaceOnUse">
<stop stop-color="#7FC7FF"/>
<stop offset="1" stop-color="#b4cbf4"/>
</linearGradient>
<linearGradient id="paint1_linear_3354_9023" x1="80.3545" y1="66.7527" x2="80.3545" y2="77.4153" gradientUnits="userSpaceOnUse">
<stop stop-color="#7FC7FF"/>
<stop offset="1" stop-color="#b4cbf4"/>
</linearGradient>
</defs>
</svg>
