<svg width="137" height="138" viewBox="0 0 137 138" fill="none" xmlns="http://www.w3.org/2000/svg">
<path d="M17.4965 98.9649C12.3495 98.9649 8.13829 97.3347 4.86292 94.0742C1.62097 90.78 0 86.2422 0 80.4607C0 74.6792 1.62097 70.1582 4.86292 66.8977C8.13829 63.6372 12.3495 62.0069 17.4965 62.0069C22.7103 62.0069 26.9549 63.6372 30.2303 66.8977C33.5057 70.1582 35.1434 74.6792 35.1434 80.4607C35.1434 86.2422 33.489 90.78 30.1802 94.0742C26.9048 97.3347 22.6769 98.9649 17.4965 98.9649ZM27.9242 135.62H17.2458L53.6926 63.3179H64.4713L27.9242 135.62ZM17.4965 89.8893C19.8026 89.8893 21.6074 89.049 22.9109 87.3683C24.2143 85.6876 24.8661 83.3851 24.8661 80.4607C24.8661 77.5364 24.2143 75.2506 22.9109 73.6036C21.6408 71.9229 19.836 71.0826 17.4965 71.0826C15.2238 71.0826 13.4524 71.9229 12.1824 73.6036C10.9123 75.2506 10.2773 77.5364 10.2773 80.4607C10.2773 83.3851 10.9123 85.6876 12.1824 87.3683C13.4524 89.049 15.2238 89.8893 17.4965 89.8893ZM64.4713 136.78C59.2908 136.78 55.0629 135.15 51.7876 131.889C48.5456 128.629 46.9247 124.091 46.9247 118.276C46.9247 112.461 48.5456 107.923 51.7876 104.662C55.0629 101.402 59.2908 99.7716 64.4713 99.7716C69.6183 99.7716 73.8295 101.419 77.1048 104.713C80.4136 107.973 82.068 112.494 82.068 118.276C82.068 124.057 80.4136 128.595 77.1048 131.889C73.8295 135.15 69.6183 136.78 64.4713 136.78ZM64.4713 127.654C66.744 127.654 68.5321 126.814 69.8355 125.133C71.139 123.452 71.7907 121.167 71.7907 118.276C71.7907 115.351 71.139 113.066 69.8355 111.419C68.5655 109.738 66.7774 108.898 64.4713 108.898C62.1317 108.898 60.3269 109.738 59.0569 111.419C57.8203 113.066 57.202 115.351 57.202 118.276C57.202 121.2 57.8203 123.503 59.0569 125.183C60.3269 126.83 62.1317 127.654 64.4713 127.654Z" fill="#28BCA9" fill-opacity="0.5"/>
<path fill-rule="evenodd" clip-rule="evenodd" d="M123.449 76.5775C118.243 75.201 111.783 77.0965 106.938 81.942C102.092 86.7874 100.197 93.2472 101.573 98.4531C106.779 99.8296 113.239 97.9341 118.084 93.0886C122.93 88.2432 124.825 81.7833 123.449 76.5775Z" fill="#7FC7FF"/>
<rect x="94.7112" y="60.26" width="6.44001" height="44.16" fill="#28BCA9"/>
<circle cx="98.4815" cy="38.2984" r="38.2984" fill="#b4cbf4"/>
<circle cx="98.4815" cy="38.2985" r="32.3272" stroke="#28BCA9"/>
<path d="M71.5447 107.762C70.9108 104.094 73.7348 100.74 77.4571 100.74H119.325C123.047 100.74 125.871 104.094 125.237 107.762L120.872 133.022C120.374 135.899 117.879 138 114.959 138H81.823C78.9036 138 76.4079 135.899 75.9106 133.022L71.5447 107.762Z" fill="#b4cbf4"/>
<path fill-rule="evenodd" clip-rule="evenodd" d="M86.5346 100.74C77.9351 100.74 71.3684 108.42 72.7047 116.915L73.0546 119.14H123.386L123.736 116.915C125.072 108.42 118.505 100.74 109.906 100.74H86.5346Z" fill="#28BCA9"/>
<rect x="63.4312" y="96.14" width="69.4601" height="15.64" rx="6" fill="#b4cbf4"/>
<rect x="81.4275" y="18.2834" width="34.6509" height="41.5811" rx="5" fill="white"/>
<circle cx="92.4192" cy="28.9186" r="6.11426" fill="#b4cbf4"/>
<circle cx="99.9035" cy="34.0994" r="7.48457" fill="url(#paint0_linear_3348_7280)"/>
<circle cx="107.388" cy="39.0117" r="3.81194" fill="#7FC7FF"/>
<path fill-rule="evenodd" clip-rule="evenodd" d="M86.718 47.1328C86.718 46.9127 86.8964 46.7344 87.1164 46.7344H110.388C110.608 46.7344 110.787 46.9127 110.787 47.1328C110.787 47.3528 110.608 47.5312 110.388 47.5312H87.1164C86.8964 47.5312 86.718 47.3528 86.718 47.1328Z" fill="#1E2121"/>
<path fill-rule="evenodd" clip-rule="evenodd" d="M86.718 50.4844C86.718 50.2643 86.8964 50.086 87.1164 50.086H110.388C110.608 50.086 110.787 50.2643 110.787 50.4844C110.787 50.7044 110.608 50.8828 110.388 50.8828H87.1164C86.8964 50.8828 86.718 50.7044 86.718 50.4844Z" fill="#1E2121"/>
<path fill-rule="evenodd" clip-rule="evenodd" d="M86.718 54.1403C86.718 53.9203 86.8964 53.7419 87.1164 53.7419H110.388C110.608 53.7419 110.787 53.9203 110.787 54.1403C110.787 54.3604 110.608 54.5387 110.388 54.5387H87.1164C86.8964 54.5387 86.718 54.3604 86.718 54.1403Z" fill="#1E2121"/>
<defs>
<linearGradient id="paint0_linear_3348_7280" x1="99.9035" y1="26.6149" x2="99.9035" y2="41.584" gradientUnits="userSpaceOnUse">
<stop stop-color="#7FC7FF"/>
<stop offset="1" stop-color="#b4cbf4"/>
</linearGradient>
</defs>
</svg>
