<svg width="115" height="115" viewBox="0 0 115 115" fill="none" xmlns="http://www.w3.org/2000/svg">
<circle cx="57.5" cy="57.5" r="57.5" fill="#141616"/>
<path d="M24.509 71.7851C21.7117 71.7851 19.423 70.8991 17.6429 69.1271C15.881 67.3368 15 64.8706 15 61.7285C15 58.5863 15.881 56.1293 17.6429 54.3572C19.423 52.5852 21.7117 51.6992 24.509 51.6992C27.3426 51.6992 29.6494 52.5852 31.4295 54.3572C33.2096 56.1293 34.0997 58.5863 34.0997 61.7285C34.0997 64.8706 33.2005 67.3368 31.4023 69.1271C29.6222 70.8991 27.3244 71.7851 24.509 71.7851ZM30.1762 91.7065H24.3727L44.1808 52.4117H50.0388L30.1762 91.7065ZM24.509 66.8527C25.7623 66.8527 26.7432 66.396 27.4516 65.4826C28.16 64.5692 28.5142 63.3178 28.5142 61.7285C28.5142 60.1391 28.16 58.8969 27.4516 58.0017C26.7613 57.0883 25.7805 56.6316 24.509 56.6316C23.2738 56.6316 22.3111 57.0883 21.6209 58.0017C20.9306 58.8969 20.5855 60.1391 20.5855 61.7285C20.5855 63.3178 20.9306 64.5692 21.6209 65.4826C22.3111 66.396 23.2738 66.8527 24.509 66.8527ZM50.0388 92.3368C47.2233 92.3368 44.9255 91.4508 43.1454 89.6788C41.3835 87.9068 40.5025 85.4405 40.5025 82.2802C40.5025 79.1198 41.3835 76.6536 43.1454 74.8815C44.9255 73.1095 47.2233 72.2235 50.0388 72.2235C52.836 72.2235 55.1247 73.1187 56.9048 74.9089C58.7031 76.681 59.6022 79.138 59.6022 82.2802C59.6022 85.4223 58.7031 87.8885 56.9048 89.6788C55.1247 91.4508 52.836 92.3368 50.0388 92.3368ZM50.0388 87.377C51.2739 87.377 52.2457 86.9203 52.9541 86.0069C53.6625 85.0935 54.0167 83.8512 54.0167 82.2802C54.0167 80.6908 53.6625 79.4486 52.9541 78.5534C52.2639 77.64 51.2921 77.1833 50.0388 77.1833C48.7673 77.1833 47.7864 77.64 47.0962 78.5534C46.4241 79.4486 46.088 80.6908 46.088 82.2802C46.088 83.8695 46.4241 85.1209 47.0962 86.0343C47.7864 86.9294 48.7673 87.377 50.0388 87.377Z" fill="#28BCA9" fill-opacity="0.5"/>
<path fill-rule="evenodd" clip-rule="evenodd" d="M70.203 71.5073C69.4549 68.678 70.4851 65.1673 73.1185 62.5339C75.7519 59.9005 79.2627 58.8703 82.0919 59.6184C82.84 62.4476 81.8098 65.9584 79.1764 68.5918C76.543 71.2252 73.0323 72.2554 70.203 71.5073Z" fill="#7FC7FF"/>
<rect x="66.4735" y="50.75" width="3.50001" height="24" fill="#28BCA9"/>
<circle cx="68.5226" cy="38.8144" r="20.8144" fill="#b4cbf4"/>
<circle cx="68.5226" cy="38.8145" r="17.3409" stroke="#28BCA9"/>
<path d="M54.4373 79.7716C53.8033 76.1038 56.6274 72.7498 60.3496 72.7498H76.5977C80.3199 72.7498 83.144 76.1038 82.51 79.7716L81.0841 88.0217C80.5869 90.8984 78.0912 92.9998 75.1717 92.9998H61.7756C58.8561 92.9998 56.3604 90.8984 55.8632 88.0217L54.4373 79.7716Z" fill="#b4cbf4"/>
<path fill-rule="evenodd" clip-rule="evenodd" d="M55.0702 82.75H81.6915C81.1377 77.2252 76.4706 72.75 70.619 72.75H66.1426C60.2911 72.75 55.6239 77.2252 55.0702 82.75Z" fill="#28BCA9"/>
<rect x="49.4735" y="70.25" width="37.7501" height="8.50001" rx="4.25001" fill="#b4cbf4"/>
<rect x="59.254" y="27.9365" width="18.832" height="22.5984" rx="5" fill="white"/>
<circle cx="65.2278" cy="33.7168" r="3.32297" fill="#b4cbf4"/>
<circle cx="69.2954" cy="36.5323" r="4.0677" fill="url(#paint0_linear_3354_9059)"/>
<circle cx="73.3631" cy="39.2018" r="2.07171" fill="#7FC7FF"/>
<path fill-rule="evenodd" clip-rule="evenodd" d="M62.1294 43.6157C62.1294 43.4961 62.2263 43.3992 62.3459 43.3992H74.9937C75.1133 43.3992 75.2102 43.4961 75.2102 43.6157C75.2102 43.7353 75.1133 43.8322 74.9937 43.8322H62.3459C62.2263 43.8322 62.1294 43.7353 62.1294 43.6157Z" fill="#1E2121"/>
<path fill-rule="evenodd" clip-rule="evenodd" d="M62.1294 45.4372C62.1294 45.3176 62.2263 45.2207 62.3459 45.2207H74.9937C75.1133 45.2207 75.2102 45.3176 75.2102 45.4372C75.2102 45.5568 75.1133 45.6538 74.9937 45.6538H62.3459C62.2263 45.6538 62.1294 45.5568 62.1294 45.4372Z" fill="#1E2121"/>
<path fill-rule="evenodd" clip-rule="evenodd" d="M62.1294 47.4241C62.1294 47.3045 62.2263 47.2075 62.3459 47.2075H74.9937C75.1133 47.2075 75.2102 47.3045 75.2102 47.4241C75.2102 47.5436 75.1133 47.6406 74.9937 47.6406H62.3459C62.2263 47.6406 62.1294 47.5436 62.1294 47.4241Z" fill="#1E2121"/>
<defs>
<linearGradient id="paint0_linear_3354_9059" x1="69.2954" y1="32.4646" x2="69.2954" y2="40.6" gradientUnits="userSpaceOnUse">
<stop stop-color="#7FC7FF"/>
<stop offset="1" stop-color="#b4cbf4"/>
</linearGradient>
</defs>
</svg>
