<svg width="202" height="116" viewBox="0 0 202 116" fill="none" xmlns="http://www.w3.org/2000/svg">
<rect x="25.2148" width="150.8" height="107.077" rx="10" fill="white"/>
<rect x="31.0154" y="6.81132" width="139.2" height="93.4545" rx="10" fill="#141616"/>
<rect x="0.119141" y="104.4" width="200.992" height="11.6" rx="5.79999" fill="white"/>
<rect x="40.8306" y="16.0615" width="25.3714" height="30.4456" rx="5" fill="#1E2121"/>
<rect x="40.8306" y="52.5299" width="25.3714" height="30.4456" rx="5" fill="#1E2121"/>
<rect x="102.737" y="16.0615" width="25.3714" height="30.4456" rx="5" fill="#1E2121"/>
<rect x="102.737" y="52.5299" width="25.3714" height="30.4456" rx="5" fill="#1E2121"/>
<rect x="71.7837" y="16.0615" width="25.3714" height="30.4456" rx="5" fill="#1E2121"/>
<rect x="71.7837" y="52.5299" width="25.3714" height="30.4456" rx="5" fill="#1E2121"/>
<rect x="133.69" y="16.0615" width="25.3714" height="30.4456" rx="5" fill="#1E2121"/>
<rect x="133.69" y="52.5299" width="25.3714" height="30.4456" rx="5" fill="#1E2121"/>
<circle cx="53.5163" cy="27.6428" r="5.48019" fill="url(#paint0_linear_3348_7426)"/>
<circle cx="53.5163" cy="64.1107" r="5.48019" fill="url(#paint1_linear_3348_7426)"/>
<circle cx="84.4692" cy="27.6428" r="5.48019" fill="url(#paint2_linear_3348_7426)"/>
<circle cx="84.4692" cy="64.1107" r="5.48019" fill="url(#paint3_linear_3348_7426)"/>
<circle cx="115.422" cy="27.6428" r="5.48019" fill="url(#paint4_linear_3348_7426)"/>
<circle cx="115.422" cy="64.1107" r="5.48019" fill="url(#paint5_linear_3348_7426)"/>
<circle cx="146.375" cy="27.6428" r="5.48019" fill="url(#paint6_linear_3348_7426)"/>
<circle cx="146.375" cy="64.1107" r="5.48019" fill="url(#paint7_linear_3348_7426)"/>
<line x1="44.8999" y1="36.977" x2="61.5229" y2="36.977" stroke="white" stroke-linecap="round"/>
<line x1="44.8999" y1="73.4455" x2="61.5229" y2="73.4455" stroke="white" stroke-linecap="round"/>
<line x1="76.1577" y1="36.977" x2="92.7808" y2="36.977" stroke="white" stroke-linecap="round"/>
<line x1="76.1577" y1="73.4455" x2="92.7808" y2="73.4455" stroke="white" stroke-linecap="round"/>
<line x1="107.111" y1="36.977" x2="123.734" y2="36.977" stroke="white" stroke-linecap="round"/>
<line x1="107.111" y1="73.4455" x2="123.734" y2="73.4455" stroke="white" stroke-linecap="round"/>
<line x1="138.063" y1="36.977" x2="154.687" y2="36.977" stroke="white" stroke-linecap="round"/>
<line x1="138.063" y1="73.4455" x2="154.687" y2="73.4455" stroke="white" stroke-linecap="round"/>
<line x1="44.8999" y1="39.4309" x2="61.5229" y2="39.4309" stroke="white" stroke-linecap="round"/>
<line x1="44.8999" y1="75.8994" x2="61.5229" y2="75.8994" stroke="white" stroke-linecap="round"/>
<line x1="76.1577" y1="39.4309" x2="92.7808" y2="39.4309" stroke="white" stroke-linecap="round"/>
<line x1="76.1577" y1="75.8994" x2="92.7808" y2="75.8994" stroke="white" stroke-linecap="round"/>
<line x1="107.111" y1="39.4309" x2="123.734" y2="39.4309" stroke="white" stroke-linecap="round"/>
<line x1="107.111" y1="75.8994" x2="123.734" y2="75.8994" stroke="white" stroke-linecap="round"/>
<line x1="138.063" y1="39.4309" x2="154.687" y2="39.4309" stroke="white" stroke-linecap="round"/>
<line x1="138.063" y1="75.8994" x2="154.687" y2="75.8994" stroke="white" stroke-linecap="round"/>
<line x1="44.8999" y1="42.1069" x2="61.5229" y2="42.1069" stroke="white" stroke-linecap="round"/>
<line x1="44.8999" y1="78.5761" x2="61.5229" y2="78.5761" stroke="white" stroke-linecap="round"/>
<line x1="76.1577" y1="42.1069" x2="92.7808" y2="42.1069" stroke="white" stroke-linecap="round"/>
<line x1="76.1577" y1="78.5761" x2="92.7808" y2="78.5761" stroke="white" stroke-linecap="round"/>
<line x1="107.111" y1="42.1069" x2="123.734" y2="42.1069" stroke="white" stroke-linecap="round"/>
<line x1="107.111" y1="78.5761" x2="123.734" y2="78.5761" stroke="white" stroke-linecap="round"/>
<line x1="138.063" y1="42.1069" x2="154.687" y2="42.1069" stroke="white" stroke-linecap="round"/>
<line x1="138.063" y1="78.5761" x2="154.687" y2="78.5761" stroke="white" stroke-linecap="round"/>
<defs>
<linearGradient id="paint0_linear_3348_7426" x1="53.5163" y1="22.1627" x2="53.5163" y2="33.123" gradientUnits="userSpaceOnUse">
<stop stop-color="#7FC7FF"/>
<stop offset="1" stop-color="#b4cbf4"/>
</linearGradient>
<linearGradient id="paint1_linear_3348_7426" x1="53.5163" y1="58.6305" x2="53.5163" y2="69.5909" gradientUnits="userSpaceOnUse">
<stop stop-color="#7FC7FF"/>
<stop offset="1" stop-color="#b4cbf4"/>
</linearGradient>
<linearGradient id="paint2_linear_3348_7426" x1="84.4692" y1="22.1627" x2="84.4692" y2="33.123" gradientUnits="userSpaceOnUse">
<stop stop-color="#7FC7FF"/>
<stop offset="1" stop-color="#b4cbf4"/>
</linearGradient>
<linearGradient id="paint3_linear_3348_7426" x1="84.4692" y1="58.6305" x2="84.4692" y2="69.5909" gradientUnits="userSpaceOnUse">
<stop stop-color="#7FC7FF"/>
<stop offset="1" stop-color="#b4cbf4"/>
</linearGradient>
<linearGradient id="paint4_linear_3348_7426" x1="115.422" y1="22.1627" x2="115.422" y2="33.123" gradientUnits="userSpaceOnUse">
<stop stop-color="#7FC7FF"/>
<stop offset="1" stop-color="#b4cbf4"/>
</linearGradient>
<linearGradient id="paint5_linear_3348_7426" x1="115.422" y1="58.6305" x2="115.422" y2="69.5909" gradientUnits="userSpaceOnUse">
<stop stop-color="#7FC7FF"/>
<stop offset="1" stop-color="#b4cbf4"/>
</linearGradient>
<linearGradient id="paint6_linear_3348_7426" x1="146.375" y1="22.1627" x2="146.375" y2="33.123" gradientUnits="userSpaceOnUse">
<stop stop-color="#7FC7FF"/>
<stop offset="1" stop-color="#b4cbf4"/>
</linearGradient>
<linearGradient id="paint7_linear_3348_7426" x1="146.375" y1="58.6305" x2="146.375" y2="69.5909" gradientUnits="userSpaceOnUse">
<stop stop-color="#7FC7FF"/>
<stop offset="1" stop-color="#b4cbf4"/>
</linearGradient>
</defs>
</svg>
