<svg width="115" height="115" viewBox="0 0 115 115" fill="none" xmlns="http://www.w3.org/2000/svg">
<circle cx="57.5" cy="57.5" r="57.5" fill="#141616"/>
<rect x="21.8989" y="27" width="71.4998" height="50.7691" rx="6" fill="white"/>
<rect x="24.6492" y="30.2295" width="65.9999" height="44.3103" rx="5" fill="#141616"/>
<rect x="10" y="76.5" width="95.2979" height="5.49999" rx="2.74999" fill="white"/>
<rect x="29.3027" y="34.6155" width="12.0295" height="14.4354" rx="5" fill="#1E2121"/>
<rect x="29.3027" y="51.9062" width="12.0295" height="14.4354" rx="5" fill="#1E2121"/>
<rect x="58.6553" y="34.6155" width="12.0295" height="14.4354" rx="5" fill="#1E2121"/>
<rect x="58.6553" y="51.9062" width="12.0295" height="14.4354" rx="5" fill="#1E2121"/>
<rect x="43.979" y="34.6155" width="12.0295" height="14.4354" rx="5" fill="#1E2121"/>
<rect x="43.979" y="51.9062" width="12.0295" height="14.4354" rx="5" fill="#1E2121"/>
<rect x="73.3311" y="34.6155" width="12.0295" height="14.4354" rx="5" fill="#1E2121"/>
<rect x="73.3311" y="51.9062" width="12.0295" height="14.4354" rx="5" fill="#1E2121"/>
<circle cx="35.3176" cy="40.1064" r="2.59836" fill="url(#paint0_linear_3354_9106)"/>
<circle cx="35.3176" cy="57.3972" r="2.59836" fill="url(#paint1_linear_3354_9106)"/>
<circle cx="49.9936" cy="40.1064" r="2.59836" fill="url(#paint2_linear_3354_9106)"/>
<circle cx="49.9936" cy="57.3972" r="2.59836" fill="url(#paint3_linear_3354_9106)"/>
<circle cx="64.6692" cy="40.1064" r="2.59836" fill="url(#paint4_linear_3354_9106)"/>
<circle cx="64.6692" cy="57.3972" r="2.59836" fill="url(#paint5_linear_3354_9106)"/>
<circle cx="79.3454" cy="40.1064" r="2.59836" fill="url(#paint6_linear_3354_9106)"/>
<circle cx="79.3454" cy="57.3972" r="2.59836" fill="url(#paint7_linear_3354_9106)"/>
<line x1="31.4951" y1="44.2693" x2="38.8509" y2="44.2693" stroke="white" stroke-linecap="round"/>
<line x1="31.4951" y1="61.5603" x2="38.8509" y2="61.5603" stroke="white" stroke-linecap="round"/>
<line x1="46.3157" y1="44.2693" x2="53.6714" y2="44.2693" stroke="white" stroke-linecap="round"/>
<line x1="46.3157" y1="61.5603" x2="53.6714" y2="61.5603" stroke="white" stroke-linecap="round"/>
<line x1="60.9917" y1="44.2693" x2="68.3475" y2="44.2693" stroke="white" stroke-linecap="round"/>
<line x1="60.9917" y1="61.5603" x2="68.3475" y2="61.5603" stroke="white" stroke-linecap="round"/>
<line x1="75.6675" y1="44.2693" x2="83.0232" y2="44.2693" stroke="white" stroke-linecap="round"/>
<line x1="75.6675" y1="61.5603" x2="83.0232" y2="61.5603" stroke="white" stroke-linecap="round"/>
<line x1="31.4951" y1="45.4326" x2="38.8509" y2="45.4326" stroke="white" stroke-linecap="round"/>
<line x1="31.4951" y1="62.7239" x2="38.8509" y2="62.7239" stroke="white" stroke-linecap="round"/>
<line x1="46.3157" y1="45.4326" x2="53.6714" y2="45.4326" stroke="white" stroke-linecap="round"/>
<line x1="46.3157" y1="62.7239" x2="53.6714" y2="62.7239" stroke="white" stroke-linecap="round"/>
<line x1="60.9917" y1="45.4326" x2="68.3475" y2="45.4326" stroke="white" stroke-linecap="round"/>
<line x1="60.9917" y1="62.7239" x2="68.3475" y2="62.7239" stroke="white" stroke-linecap="round"/>
<line x1="75.6675" y1="45.4326" x2="83.0232" y2="45.4326" stroke="white" stroke-linecap="round"/>
<line x1="75.6675" y1="62.7239" x2="83.0232" y2="62.7239" stroke="white" stroke-linecap="round"/>
<line x1="31.4951" y1="46.7017" x2="38.8509" y2="46.7017" stroke="white" stroke-linecap="round"/>
<line x1="31.4951" y1="63.9929" x2="38.8509" y2="63.9929" stroke="white" stroke-linecap="round"/>
<line x1="46.3157" y1="46.7017" x2="53.6714" y2="46.7017" stroke="white" stroke-linecap="round"/>
<line x1="46.3157" y1="63.9929" x2="53.6714" y2="63.9929" stroke="white" stroke-linecap="round"/>
<line x1="60.9917" y1="46.7017" x2="68.3475" y2="46.7017" stroke="white" stroke-linecap="round"/>
<line x1="60.9917" y1="63.9929" x2="68.3475" y2="63.9929" stroke="white" stroke-linecap="round"/>
<line x1="75.6675" y1="46.7017" x2="83.0232" y2="46.7017" stroke="white" stroke-linecap="round"/>
<line x1="75.6675" y1="63.9929" x2="83.0232" y2="63.9929" stroke="white" stroke-linecap="round"/>
<defs>
<linearGradient id="paint0_linear_3354_9106" x1="35.3176" y1="37.5081" x2="35.3176" y2="42.7048" gradientUnits="userSpaceOnUse">
<stop stop-color="#7FC7FF"/>
<stop offset="1" stop-color="#b4cbf4"/>
</linearGradient>
<linearGradient id="paint1_linear_3354_9106" x1="35.3176" y1="54.7988" x2="35.3176" y2="59.9956" gradientUnits="userSpaceOnUse">
<stop stop-color="#7FC7FF"/>
<stop offset="1" stop-color="#b4cbf4"/>
</linearGradient>
<linearGradient id="paint2_linear_3354_9106" x1="49.9936" y1="37.5081" x2="49.9936" y2="42.7048" gradientUnits="userSpaceOnUse">
<stop stop-color="#7FC7FF"/>
<stop offset="1" stop-color="#b4cbf4"/>
</linearGradient>
<linearGradient id="paint3_linear_3354_9106" x1="49.9936" y1="54.7988" x2="49.9936" y2="59.9956" gradientUnits="userSpaceOnUse">
<stop stop-color="#7FC7FF"/>
<stop offset="1" stop-color="#b4cbf4"/>
</linearGradient>
<linearGradient id="paint4_linear_3354_9106" x1="64.6692" y1="37.5081" x2="64.6692" y2="42.7048" gradientUnits="userSpaceOnUse">
<stop stop-color="#7FC7FF"/>
<stop offset="1" stop-color="#b4cbf4"/>
</linearGradient>
<linearGradient id="paint5_linear_3354_9106" x1="64.6692" y1="54.7988" x2="64.6692" y2="59.9956" gradientUnits="userSpaceOnUse">
<stop stop-color="#7FC7FF"/>
<stop offset="1" stop-color="#b4cbf4"/>
</linearGradient>
<linearGradient id="paint6_linear_3354_9106" x1="79.3454" y1="37.5081" x2="79.3454" y2="42.7048" gradientUnits="userSpaceOnUse">
<stop stop-color="#7FC7FF"/>
<stop offset="1" stop-color="#b4cbf4"/>
</linearGradient>
<linearGradient id="paint7_linear_3354_9106" x1="79.3454" y1="54.7988" x2="79.3454" y2="59.9956" gradientUnits="userSpaceOnUse">
<stop stop-color="#7FC7FF"/>
<stop offset="1" stop-color="#b4cbf4"/>
</linearGradient>
</defs>
</svg>
