<svg width="115" height="115" viewBox="0 0 115 115" fill="none" xmlns="http://www.w3.org/2000/svg">
<circle cx="57.5" cy="57.5" r="57.5" fill="#141616"/>
<rect x="32" y="26" width="52.5" height="63" rx="5" fill="white"/>
<circle cx="48.6533" cy="42.1134" r="9.26379" fill="#b4cbf4"/>
<circle cx="59.9933" cy="49.9635" r="11.3399" fill="url(#paint0_linear_3354_9026)"/>
<circle cx="71.333" cy="57.4059" r="5.77551" fill="#7FC7FF"/>
<path fill-rule="evenodd" clip-rule="evenodd" d="M40.0156 69.7101C40.0156 69.3767 40.2859 69.1064 40.6193 69.1064H75.8787C76.2121 69.1064 76.4823 69.3767 76.4823 69.7101C76.4823 70.0435 76.2121 70.3137 75.8787 70.3137H40.6193C40.2859 70.3137 40.0156 70.0435 40.0156 69.7101Z" fill="#1E2121"/>
<path fill-rule="evenodd" clip-rule="evenodd" d="M40.0156 74.7877C40.0156 74.4543 40.2859 74.1841 40.6193 74.1841H75.8787C76.2121 74.1841 76.4823 74.4543 76.4823 74.7877C76.4823 75.1211 76.2121 75.3914 75.8787 75.3914H40.6193C40.2859 75.3914 40.0156 75.1211 40.0156 74.7877Z" fill="#1E2121"/>
<path fill-rule="evenodd" clip-rule="evenodd" d="M40.0156 80.3273C40.0156 79.9939 40.2859 79.7236 40.6193 79.7236H75.8787C76.2121 79.7236 76.4823 79.9939 76.4823 80.3273C76.4823 80.6607 76.2121 80.9309 75.8787 80.9309H40.6193C40.2859 80.9309 40.0156 80.6607 40.0156 80.3273Z" fill="#1E2121"/>
<defs>
<linearGradient id="paint0_linear_3354_9026" x1="59.9933" y1="38.6235" x2="59.9933" y2="61.3034" gradientUnits="userSpaceOnUse">
<stop stop-color="#7FC7FF"/>
<stop offset="1" stop-color="#b4cbf4"/>
</linearGradient>
</defs>
</svg>
