<svg width="115" height="115" viewBox="0 0 115 115" fill="none" xmlns="http://www.w3.org/2000/svg">
<circle cx="57.5" cy="57.5" r="57.5" fill="#141616"/>
<path d="M26.8775 35.4131C26.724 34.8403 27.0639 34.2516 27.6367 34.0981L47.5494 28.7625C48.1221 28.609 48.7109 28.9489 48.8644 29.5217L55.3782 53.8317C55.5317 54.4045 55.1918 54.9933 54.619 55.1467L34.7064 60.4823C34.1336 60.6358 33.5448 60.2959 33.3914 59.7231L26.8775 35.4131Z" fill="white"/>
<circle cx="35.3823" cy="39.2554" r="4.01651" transform="rotate(-15 35.3823 39.2554)" fill="#b4cbf4"/>
<circle cx="41.0124" cy="41.2706" r="4.91667" transform="rotate(-15 41.0124 41.2706)" fill="url(#paint0_linear_3354_9024)"/>
<circle cx="46.5964" cy="43.1147" r="2.5041" transform="rotate(-15 46.5964 43.1147)" fill="#7FC7FF"/>
<path fill-rule="evenodd" clip-rule="evenodd" d="M34.8614 51.7823C34.824 51.6427 34.9069 51.4992 35.0465 51.4618L49.8131 47.5051C49.9527 47.4677 50.0962 47.5506 50.1336 47.6902C50.171 47.8298 50.0882 47.9733 49.9485 48.0107L35.182 51.9674C35.0424 52.0048 34.8989 51.922 34.8614 51.7823Z" fill="#1E2121"/>
<path fill-rule="evenodd" clip-rule="evenodd" d="M35.4313 53.9088C35.3939 53.7692 35.4767 53.6257 35.6163 53.5883L50.3829 49.6316C50.5225 49.5942 50.666 49.677 50.7034 49.8166C50.7408 49.9563 50.658 50.0998 50.5184 50.1372L35.7518 54.0939C35.6122 54.1313 35.4687 54.0484 35.4313 53.9088Z" fill="#1E2121"/>
<path fill-rule="evenodd" clip-rule="evenodd" d="M36.0528 56.2286C36.0154 56.089 36.0983 55.9455 36.2379 55.9081L51.0045 51.9514C51.1441 51.914 51.2876 51.9969 51.325 52.1365C51.3624 52.2761 51.2796 52.4196 51.1399 52.457L36.3734 56.4137C36.2338 56.4511 36.0903 56.3683 36.0528 56.2286Z" fill="#1E2121"/>
<path d="M64.7785 20.1756C64.9525 19.5263 65.6198 19.141 66.2691 19.315L88.8408 25.3631C89.4901 25.537 89.8754 26.2044 89.7014 26.8537L82.3177 54.41C82.1438 55.0593 81.4764 55.4446 80.8271 55.2706L58.2554 49.2225C57.6061 49.0485 57.2208 48.3812 57.3948 47.7319L64.7785 20.1756Z" fill="white"/>
<circle cx="70.9498" cy="28.7675" r="4.55286" transform="rotate(15 70.9498 28.7675)" fill="#b4cbf4"/>
<circle cx="75.3344" cy="33.9369" r="5.57323" transform="rotate(15 75.3344 33.9369)" fill="url(#paint1_linear_3354_9024)"/>
<circle cx="79.771" cy="38.9122" r="2.83849" transform="rotate(15 79.771 38.9122)" fill="#7FC7FF"/>
<path fill-rule="evenodd" clip-rule="evenodd" d="M63.3387 40.77C63.3811 40.6117 63.5438 40.5178 63.7021 40.5602L80.4405 45.0452C80.5988 45.0876 80.6927 45.2502 80.6503 45.4085C80.6079 45.5668 80.4452 45.6607 80.287 45.6183L63.5485 41.1333C63.3903 41.0909 63.2963 40.9282 63.3387 40.77Z" fill="#1E2121"/>
<path fill-rule="evenodd" clip-rule="evenodd" d="M62.6927 43.1804C62.7352 43.0221 62.8978 42.9282 63.0561 42.9706L79.7945 47.4556C79.9528 47.498 80.0467 47.6607 80.0043 47.819C79.9619 47.9772 79.7992 48.0712 79.641 48.0288L62.9025 43.5437C62.7443 43.5013 62.6503 43.3386 62.6927 43.1804Z" fill="#1E2121"/>
<path fill-rule="evenodd" clip-rule="evenodd" d="M61.9884 45.8098C62.0308 45.6515 62.1935 45.5576 62.3518 45.6L79.0902 50.085C79.2484 50.1274 79.3424 50.2901 79.3 50.4484C79.2576 50.6066 79.0949 50.7006 78.9366 50.6582L62.1982 46.1731C62.0399 46.1307 61.946 45.968 61.9884 45.8098Z" fill="#1E2121"/>
<path d="M93.2666 42.4433C94.2626 41.4473 95.8775 41.4473 96.8735 42.4433L97.3558 42.9256C98.3518 43.9216 98.3518 45.5365 97.3558 46.5325L81.726 62.1623C80.73 63.1583 79.1152 63.1583 78.1191 62.1623L77.6368 61.68C76.6408 60.684 76.6408 59.0691 77.6368 58.0731L93.2666 42.4433Z" fill="#b4cbf4"/>
<path d="M20.8925 42.4433C19.8965 41.4473 18.2817 41.4473 17.2857 42.4433L16.8034 42.9256C15.8074 43.9216 15.8074 45.5365 16.8034 46.5325L32.4332 62.1623C33.4292 63.1583 35.044 63.1583 36.04 62.1623L36.5223 61.68C37.5183 60.684 37.5184 59.0691 36.5223 58.0731L20.8925 42.4433Z" fill="#b4cbf4"/>
<path d="M32.9175 59.6454C32.9175 58.7063 33.6787 57.9451 34.6178 57.9451H79.6972C80.6362 57.9451 81.3975 58.7063 81.3975 59.6454V84.2997C81.3975 85.2387 80.6362 86 79.6972 86H34.6178C33.6787 86 32.9175 85.2387 32.9175 84.2997V59.6454Z" fill="#b4cbf4"/>
<path d="M75.114 80.4497H40.3815" stroke="white" stroke-width="3" stroke-linecap="round"/>
<path d="M45.1478 74.9482H43.3839V66.7378H40.3813V65.0874H48.1436V66.7378H45.1478V74.9482Z" fill="white"/>
<path d="M48.4735 73.2154C48.1548 72.6286 47.9955 71.9799 47.9955 71.2693C47.9955 70.5588 48.1548 69.9124 48.4735 69.3302C48.7966 68.7434 49.2432 68.2827 49.8132 67.948C50.3877 67.6088 51.0272 67.4391 51.7319 67.4391C52.4365 67.4391 53.0738 67.6088 53.6438 67.948C54.2183 68.2827 54.6649 68.7434 54.9835 69.3302C55.3067 69.9124 55.4683 70.5588 55.4683 71.2693C55.4683 71.9799 55.3067 72.6286 54.9835 73.2154C54.6649 73.7976 54.2183 74.2583 53.6438 74.5975C53.0738 74.9368 52.4365 75.1064 51.7319 75.1064C51.0272 75.1064 50.3877 74.9368 49.8132 74.5975C49.2432 74.2583 48.7966 73.7976 48.4735 73.2154ZM51.7319 73.4973C52.3108 73.4973 52.7866 73.2864 53.1591 72.8647C53.5316 72.4383 53.7179 71.9065 53.7179 71.2693C53.7179 70.6275 53.5316 70.098 53.1591 69.6809C52.7911 69.2591 52.3153 69.0482 51.7319 69.0482C51.1484 69.0482 50.6682 69.2591 50.2912 69.6809C49.9187 70.098 49.7324 70.6275 49.7324 71.2693C49.7324 71.9065 49.9187 72.4383 50.2912 72.8647C50.6682 73.2864 51.1484 73.4973 51.7319 73.4973Z" fill="white"/>
<path d="M57.1715 69.4402C56.9561 69.2156 56.8484 68.9474 56.8484 68.6357C56.8484 68.3239 56.9561 68.0603 57.1715 67.8449C57.3914 67.6248 57.6562 67.5148 57.9659 67.5148C58.2756 67.5148 58.5381 67.6248 58.7536 67.8449C58.9735 68.0603 59.0835 68.3239 59.0835 68.6357C59.0835 68.9474 58.9735 69.2156 58.7536 69.4402C58.5381 69.6648 58.2756 69.7771 57.9659 69.7771C57.6562 69.7771 57.3914 69.6648 57.1715 69.4402ZM57.1715 74.7694C56.9561 74.5448 56.8484 74.2766 56.8484 73.9649C56.8484 73.6532 56.9561 73.3873 57.1715 73.1672C57.3914 72.9472 57.6562 72.8372 57.9659 72.8372C58.2756 72.8372 58.5381 72.9472 58.7536 73.1672C58.9735 73.3873 59.0835 73.6532 59.0835 73.9649C59.0835 74.2766 58.9735 74.5448 58.7536 74.7694C58.5381 74.9941 58.2756 75.1064 57.9659 75.1064C57.6562 75.1064 57.3914 74.9941 57.1715 74.7694Z" fill="white"/>
<defs>
<linearGradient id="paint0_linear_3354_9024" x1="41.0124" y1="36.3539" x2="41.0124" y2="46.1872" gradientUnits="userSpaceOnUse">
<stop stop-color="#7FC7FF"/>
<stop offset="1" stop-color="#b4cbf4"/>
</linearGradient>
<linearGradient id="paint1_linear_3354_9024" x1="75.3344" y1="28.3636" x2="75.3344" y2="39.5101" gradientUnits="userSpaceOnUse">
<stop stop-color="#7FC7FF"/>
<stop offset="1" stop-color="#b4cbf4"/>
</linearGradient>
</defs>
</svg>
