<svg width="80" height="80" viewBox="0 0 80 80" fill="none" xmlns="http://www.w3.org/2000/svg">
<circle cx="40" cy="40" r="40" fill="#141616"/>
<path fill-rule="evenodd" clip-rule="evenodd" d="M25.1717 42.0825L52.5185 34.1238L52.7803 35.0234C52.9088 35.465 53.371 35.7188 53.8127 35.5903C54.2543 35.4618 54.5082 34.9995 54.3796 34.5579L54.1178 33.6584L60.673 31.7506C62.7942 31.1333 65.0141 32.3524 65.6314 34.4735L65.6805 34.6422C65.5459 34.6735 65.4115 34.7087 65.2772 34.7477C61.3023 35.9045 59.0178 40.0645 60.1746 44.0394C61.3314 48.0142 65.4914 50.2987 69.4663 49.1419C69.6006 49.1029 69.7329 49.0604 69.8632 49.0146L69.9123 49.1832C70.5296 51.3044 69.3105 53.5243 67.1894 54.1416L60.6342 56.0494L60.4015 55.2497C60.2729 54.8081 59.8107 54.5543 59.369 54.6828C58.9274 54.8113 58.6736 55.2735 58.8021 55.7152L59.0348 56.5148L31.6881 64.4734C29.567 65.0908 27.347 63.8717 26.7297 61.7505L22.4488 47.0409C21.8315 44.9197 23.0506 42.6998 25.1717 42.0825ZM56.8092 45.8866C56.3676 46.0151 56.1137 46.4773 56.2423 46.919L56.6204 48.2185C56.749 48.6601 57.2112 48.914 57.6529 48.7854C58.0945 48.6569 58.3483 48.1947 58.2198 47.753L57.8416 46.4535C57.7131 46.0119 57.2509 45.7581 56.8092 45.8866ZM57.5231 51.317C57.3946 50.8754 57.6484 50.4132 58.0901 50.2846C58.5317 50.1561 58.9939 50.4099 59.1225 50.8516L59.5007 52.1511C59.6292 52.5927 59.3754 53.0549 58.9337 53.1835C58.4921 53.312 58.0298 53.0582 57.9013 52.6165L57.5231 51.317ZM54.9618 42.5207C54.8333 42.079 55.0871 41.6168 55.5288 41.4883C55.9704 41.3597 56.4326 41.6136 56.5612 42.0552L56.9394 43.3547C57.0679 43.7963 56.8141 44.2586 56.3724 44.3871C55.9308 44.5156 55.4685 44.2618 55.34 43.8201L54.9618 42.5207ZM54.2498 37.09C53.8081 37.2186 53.5543 37.6808 53.6828 38.1225L54.061 39.4219C54.1895 39.8636 54.6517 40.1174 55.0934 39.9889C55.535 39.8604 55.7889 39.3981 55.6603 38.9565L55.2822 37.657C55.1536 37.2153 54.6914 36.9615 54.2498 37.09Z" fill="white"/>
<path fill-rule="evenodd" clip-rule="evenodd" d="M25.1717 42.0825L52.5186 34.1238L52.7803 35.0232C52.9089 35.4649 53.3711 35.7187 53.8127 35.5902C54.2544 35.4616 54.5082 34.9994 54.3797 34.5578L54.1179 33.6583L60.673 31.7506C62.7942 31.1333 65.0141 32.3524 65.6314 34.4735L65.6804 34.642C65.5459 34.6733 65.4114 34.7084 65.2772 34.7475C64.7274 34.9075 64.21 35.1249 63.7295 35.3914L63.5613 34.8133C63.3685 34.1508 62.6751 33.77 62.0126 33.9628L25.2274 44.6683C24.565 44.8611 24.1842 45.5544 24.377 46.2169L28.7988 61.4108C28.9916 62.0733 29.685 62.454 30.3475 62.2612L67.1327 51.5558C67.7951 51.363 68.1759 50.6696 67.9831 50.0071L67.8148 49.4288C68.3632 49.3959 68.9165 49.3017 69.4663 49.1417C69.6005 49.1026 69.7329 49.0601 69.8632 49.0143L69.9123 49.1832C70.5296 51.3044 69.3105 53.5243 67.1894 54.1416L60.6343 56.0493L60.4015 55.2496C60.273 54.8079 59.8108 54.5541 59.3691 54.6826C58.9275 54.8112 58.6736 55.2734 58.8022 55.715L59.0349 56.5148L31.6881 64.4734C29.567 65.0908 27.347 63.8717 26.7297 61.7505L22.4488 47.0409C21.8315 44.9197 23.0506 42.6998 25.1717 42.0825ZM63.3596 35.6107C60.6097 37.3508 59.2197 40.7581 60.1746 44.0391C61.1295 47.3202 64.1307 49.4495 67.385 49.4422L67.5832 50.1235C67.7118 50.5652 67.4579 51.0274 67.0163 51.1559L30.2311 61.8614C29.7894 61.9899 29.3272 61.7361 29.1987 61.2944L24.7769 46.1006C24.6483 45.6589 24.9022 45.1967 25.3438 45.0682L62.129 34.3627C62.5707 34.2341 63.0329 34.488 63.1614 34.9296L63.3596 35.6107ZM56.8093 45.8864C56.3676 46.015 56.1138 46.4772 56.2423 46.9188L56.6205 48.2183C56.749 48.66 57.2113 48.9138 57.6529 48.7853C58.0946 48.6567 58.3484 48.1945 58.2199 47.7529L57.8417 46.4534C57.7132 46.0117 57.2509 45.7579 56.8093 45.8864ZM57.5232 51.3169C57.3946 50.8753 57.6485 50.413 58.0901 50.2845C58.5318 50.156 58.994 50.4098 59.1225 50.8514L59.5007 52.1509C59.6293 52.5926 59.3754 53.0548 58.9338 53.1833C58.4921 53.3119 58.0299 53.058 57.9014 52.6164L57.5232 51.3169ZM54.9619 42.5205C54.8334 42.0789 55.0872 41.6167 55.5288 41.4881C55.9705 41.3596 56.4327 41.6134 56.5612 42.0551L56.9394 43.3545C57.068 43.7962 56.8141 44.2584 56.3725 44.387C55.9308 44.5155 55.4686 44.2617 55.3401 43.82L54.9619 42.5205ZM54.2498 37.0899C53.8082 37.2184 53.5543 37.6807 53.6829 38.1223L54.0611 39.4218C54.1896 39.8634 54.6518 40.1173 55.0935 39.9887C55.5351 39.8602 55.7889 39.398 55.6604 38.9563L55.2822 37.6569C55.1537 37.2152 54.6915 36.9614 54.2498 37.0899Z" fill="#b4cbf4"/>
<path d="M32.3699 52.3382L32.2963 52.0851C32.0981 51.4042 32.0161 50.7266 32.0504 50.0526C32.089 49.3704 32.2383 48.7307 32.4981 48.1332C32.758 47.5358 33.1259 47.0187 33.6019 46.582C34.078 46.1453 34.6565 45.8279 35.3374 45.6297C36.0122 45.4333 36.6416 45.3958 37.2259 45.5172C37.8145 45.6305 38.3541 45.8428 38.8445 46.1541C39.3412 46.4636 39.7826 46.8163 40.1689 47.2121C40.5533 47.6017 40.8814 47.984 41.1532 48.3589C41.4294 48.7258 41.6435 49.0192 41.7957 49.2393L41.9102 49.6328C41.8999 49.9001 41.8776 50.2658 41.8432 50.7298C41.8132 51.1858 41.7415 51.6844 41.628 52.2257C41.5144 52.767 41.3343 53.3006 41.0875 53.8264C40.8407 54.3523 40.5003 54.8241 40.0662 55.2418C39.6365 55.6515 39.0874 55.9536 38.4189 56.1481C37.7317 56.3481 37.0669 56.3925 36.4247 56.2813C35.7886 56.1682 35.2007 55.9293 34.6609 55.5646C34.121 55.1999 33.6527 54.7433 33.2558 54.1947C32.8634 53.638 32.5681 53.0191 32.3699 52.3382ZM34.03 51.5806L34.1036 51.8336C34.2509 52.3397 34.4493 52.8003 34.6989 53.2156C34.953 53.6228 35.2487 53.9637 35.5861 54.2382C35.9298 54.5109 36.3047 54.6932 36.7109 54.785C37.1172 54.8769 37.5483 54.8564 38.0044 54.7237C38.4479 54.5946 38.8133 54.3832 39.1006 54.0896C39.3923 53.7878 39.6248 53.4457 39.7981 53.0632C39.9714 52.6807 40.0964 52.2954 40.1731 51.9071C40.2561 51.517 40.308 51.1597 40.3288 50.8351C40.3495 50.5106 40.355 50.2616 40.3452 50.0883L40.2307 49.6947C40.1477 49.5494 40.0113 49.3486 39.8215 49.0921C39.6298 48.8294 39.3943 48.5557 39.115 48.271C38.8418 47.9846 38.5295 47.7265 38.1781 47.4967C37.8248 47.2607 37.4419 47.0977 37.0294 47.0076C36.6214 46.9095 36.1956 46.925 35.752 47.0541C35.3022 47.185 34.9314 47.4014 34.6397 47.7031C34.3462 47.9986 34.1308 48.3527 33.9934 48.7654C33.856 49.1781 33.7903 49.6275 33.7962 50.1137C33.8066 50.5918 33.8845 51.0808 34.03 51.5806ZM50.0735 46.9115L50.1472 47.1645C50.3453 47.8455 50.4251 48.527 50.3864 49.2092C50.346 49.8851 50.1958 50.5217 49.936 51.1192C49.6761 51.7166 49.3051 52.2345 48.8228 52.6731C48.3468 53.1098 47.7683 53.4272 47.0873 53.6254C46.4188 53.82 45.7902 53.8606 45.2016 53.7473C44.6174 53.6259 44.0769 53.4105 43.5802 53.101C43.0898 52.7897 42.6515 52.4361 42.2652 52.0403C41.879 51.6444 41.5477 51.2631 41.2715 50.8962C40.9998 50.5213 40.791 50.2229 40.6451 50.001L40.5305 49.6074C40.5409 49.3401 40.561 48.9785 40.5909 48.5225C40.6253 48.0585 40.7001 47.559 40.8155 47.0239C40.929 46.4826 41.1092 45.9491 41.356 45.4232C41.609 44.8955 41.9504 44.4269 42.38 44.0172C42.8142 43.5995 43.3686 43.2924 44.0433 43.0961C44.718 42.8997 45.3734 42.858 46.0094 42.9711C46.6455 43.0842 47.2334 43.3231 47.7732 43.6878C48.3193 44.0506 48.7886 44.5104 49.181 45.0671C49.5778 45.6157 49.8753 46.2305 50.0735 46.9115ZM48.4135 47.6691L48.3399 47.416C48.1944 46.9162 47.9946 46.4627 47.7406 46.0555C47.4847 45.6421 47.1881 45.2981 46.8507 45.0236C46.5133 44.749 46.1415 44.5659 45.7353 44.474C45.3335 44.3741 44.9077 44.3896 44.4579 44.5205C44.008 44.6514 43.6373 44.8677 43.3456 45.1695C43.0521 45.4649 42.8196 45.8071 42.6481 46.1958C42.4748 46.5783 42.3467 46.9646 42.2637 47.3547C42.1807 47.7448 42.1288 48.1021 42.1081 48.4266C42.0855 48.7449 42.0782 48.9876 42.0862 49.1547L42.2007 49.5483C42.2855 49.6998 42.4237 49.907 42.6153 50.1697C42.807 50.4324 43.0425 50.7061 43.3219 50.9907C43.6012 51.2753 43.9135 51.5335 44.2588 51.765C44.6103 51.9948 44.99 52.1587 45.3981 52.2568C45.8043 52.3487 46.2292 52.3301 46.6728 52.201C47.1226 52.0701 47.4942 51.8569 47.7877 51.5614C48.0812 51.2659 48.2967 50.9118 48.4341 50.4991C48.5777 50.0846 48.6475 49.6373 48.6433 49.1574C48.6374 48.6712 48.5608 48.1751 48.4135 47.6691Z" fill="white"/>
<g filter="url(#filter0_d_3375_10580)">
<path fill-rule="evenodd" clip-rule="evenodd" d="M12.5014 43.362L28.3447 19.6929L29.1249 20.2152C29.5072 20.471 30.0245 20.3686 30.2803 19.9863C30.5362 19.6041 30.4337 19.0868 30.0515 18.8309L29.2712 18.3086L33.0683 12.6359C34.2972 10.8001 36.7816 10.308 38.6174 11.5369L38.7634 11.6346C38.6804 11.745 38.6 11.8583 38.5222 11.9745C36.2194 15.4147 37.1415 20.0702 40.5817 22.373C44.0219 24.6757 48.6775 23.7537 50.9803 20.3135C51.058 20.1973 51.1321 20.0797 51.2025 19.9609L51.3485 20.0586C53.1843 21.2875 53.6764 23.7719 52.4475 25.6077L48.6503 31.2805L47.9597 30.8182C47.5775 30.5623 47.0602 30.6648 46.8043 31.047C46.5485 31.4293 46.6509 31.9466 47.0332 32.2024L47.7238 32.6647L31.8806 56.3337C30.6517 58.1696 28.1673 58.6616 26.3315 57.4328L13.6004 48.911C11.7646 47.6822 11.2725 45.1978 12.5014 43.362ZM39.1912 25.9507C38.9353 26.3329 39.0378 26.8502 39.42 27.1061L40.5447 27.8589C40.9269 28.1148 41.4442 28.0123 41.7001 27.6301C41.9559 27.2478 41.8535 26.7305 41.4712 26.4747L40.3466 25.7219C39.9643 25.466 39.447 25.5685 39.1912 25.9507ZM43.2266 29.6543C42.8443 29.3984 42.7419 28.8811 42.9977 28.4989C43.2536 28.1166 43.7709 28.0142 44.1531 28.27L45.2778 29.0229C45.6601 29.2787 45.7625 29.796 45.5067 30.1782C45.2508 30.5605 44.7335 30.6629 44.3513 30.4071L43.2266 29.6543ZM35.6134 24.5583C35.2312 24.3024 35.1287 23.7851 35.3846 23.4029C35.6404 23.0207 36.1577 22.9182 36.54 23.1741L37.6647 23.9269C38.0469 24.1828 38.1494 24.7 37.8935 25.0823C37.6376 25.4645 37.1203 25.567 36.7381 25.3111L35.6134 24.5583ZM31.578 20.8547C31.3221 21.237 31.4246 21.7543 31.8068 22.0101L32.9315 22.763C33.3138 23.0188 33.831 22.9164 34.0869 22.5341C34.3428 22.1519 34.2403 21.6346 33.8581 21.3787L32.7334 20.6259C32.3511 20.37 31.8339 20.4725 31.578 20.8547Z" fill="white"/>
<path fill-rule="evenodd" clip-rule="evenodd" d="M12.5014 43.362L28.3448 19.6926L29.1253 20.2151C29.5076 20.471 30.0249 20.3685 30.2807 19.9863C30.5366 19.604 30.4341 19.0867 30.0519 18.8309L29.2714 18.3084L33.0683 12.6359C34.2972 10.8001 36.7816 10.308 38.6174 11.5369L38.7636 11.6348C38.6807 11.7451 38.6003 11.8583 38.5226 11.9744C38.2041 12.4502 37.9474 12.9492 37.7504 13.462L37.2501 13.1271C36.6767 12.7433 35.9008 12.897 35.517 13.4703L14.2063 45.3076C13.8225 45.881 13.9762 46.6569 14.5495 47.0407L27.6997 55.8429C28.2731 56.2267 29.049 56.0731 29.4328 55.4997L50.7435 23.6624C51.1273 23.0891 50.9736 22.3131 50.4003 21.9294L49.8997 21.5943C50.2987 21.2167 50.6622 20.7891 50.9806 20.3134C51.0584 20.1973 51.1324 20.0798 51.2028 19.9611L51.3485 20.0586C53.1843 21.2875 53.6764 23.7719 52.4475 25.6077L48.6505 31.2803L47.9601 30.8181C47.5779 30.5623 47.0606 30.6647 46.8047 31.047C46.5489 31.4292 46.6513 31.9465 47.0336 32.2024L47.7239 32.6645L31.8806 56.3337C30.6517 58.1696 28.1673 58.6616 26.3315 57.4328L13.6004 48.911C11.7646 47.6822 11.2725 45.1978 12.5014 43.362ZM37.6079 13.8677C36.6184 16.9679 37.7423 20.4721 40.5821 22.3729C43.4219 24.2738 47.0899 23.9772 49.579 21.8807L50.1686 22.2754C50.5509 22.5313 50.6533 23.0486 50.3975 23.4308L29.0867 55.2681C28.8309 55.6503 28.3136 55.7528 27.9313 55.4969L14.7812 46.6946C14.3989 46.4388 14.2965 45.9215 14.5523 45.5392L35.8631 13.702C36.1189 13.3197 36.6362 13.2173 37.0185 13.4731L37.6079 13.8677ZM39.1916 25.9506C38.9357 26.3329 39.0381 26.8502 39.4204 27.106L40.5451 27.8588C40.9273 28.1147 41.4446 28.0123 41.7005 27.63C41.9563 27.2478 41.8539 26.7305 41.4716 26.4746L40.3469 25.7218C39.9647 25.4659 39.4474 25.5684 39.1916 25.9506ZM43.227 29.6542C42.8447 29.3983 42.7423 28.881 42.9981 28.4988C43.254 28.1166 43.7713 28.0141 44.1535 28.27L45.2782 29.0228C45.6605 29.2787 45.7629 29.7959 45.507 30.1782C45.2512 30.5604 44.7339 30.6629 44.3517 30.407L43.227 29.6542ZM35.6138 24.5582C35.2316 24.3024 35.1291 23.7851 35.385 23.4028C35.6408 23.0206 36.1581 22.9181 36.5404 23.174L37.665 23.9268C38.0473 24.1827 38.1497 24.7 37.8939 25.0822C37.638 25.4645 37.1207 25.5669 36.7385 25.3111L35.6138 24.5582ZM31.5784 20.8547C31.3225 21.2369 31.425 21.7542 31.8072 22.0101L32.9319 22.7629C33.3142 23.0187 33.8314 22.9163 34.0873 22.5341C34.3432 22.1518 34.2407 21.6345 33.8585 21.3787L32.7338 20.6258C32.3515 20.37 31.8342 20.4724 31.5784 20.8547Z" fill="#7FC7FF"/>
<path d="M24.608 46.5961L24.389 46.4495C23.7996 46.055 23.3015 45.5884 22.8947 45.0499C22.486 44.5023 22.1894 43.9162 22.0047 43.2914C21.82 42.6667 21.7697 42.0341 21.8539 41.3936C21.9381 40.7531 22.1775 40.1382 22.572 39.5488C22.9629 38.9648 23.4212 38.5317 23.9468 38.2493C24.4707 37.9579 25.0206 37.774 25.5964 37.6975C26.1758 37.6155 26.7407 37.6021 27.291 37.6573C27.8359 37.7089 28.3329 37.791 28.7821 37.9037C29.2294 38.0074 29.5821 38.0947 29.84 38.1656L30.1807 38.3936C30.3445 38.605 30.5623 38.8996 30.8341 39.2773C31.1041 39.6459 31.3695 40.0741 31.6302 40.5618C31.891 41.0496 32.0958 41.5742 32.2445 42.1357C32.3932 42.6972 32.4355 43.2775 32.3712 43.8765C32.3051 44.4665 32.0784 45.0508 31.6912 45.6294C31.293 46.2241 30.8122 46.6852 30.2485 47.0126C29.6885 47.3346 29.0844 47.5293 28.4365 47.5966C27.7885 47.664 27.1362 47.615 26.4796 47.4495C25.8212 47.2751 25.1974 46.9906 24.608 46.5961ZM25.3934 44.949L25.6124 45.0956C26.0503 45.3887 26.4984 45.6143 26.9565 45.7721C27.4128 45.9209 27.8584 45.9922 28.2933 45.9857C28.7318 45.9739 29.1363 45.8727 29.5066 45.6821C29.8769 45.4915 30.1941 45.1989 30.4583 44.8041C30.7153 44.4202 30.8595 44.0235 30.891 43.6139C30.9206 43.1953 30.879 42.7837 30.766 42.3793C30.6531 41.9748 30.5013 41.5992 30.3107 41.2524C30.1237 40.9001 29.9338 40.593 29.7412 40.3309C29.5486 40.0689 29.3929 39.8746 29.274 39.7481L28.9334 39.52C28.7765 39.462 28.5429 39.3957 28.2326 39.3211C27.917 39.2429 27.5607 39.1845 27.1637 39.1459C26.7704 39.1018 26.3652 39.1047 25.9483 39.1545C25.5259 39.2006 25.1278 39.3217 24.7538 39.5177C24.3781 39.7046 24.0618 39.9901 23.8048 40.374C23.5442 40.7633 23.3991 41.1673 23.3694 41.5859C23.3344 42.0009 23.3968 42.4107 23.5566 42.8152C23.7165 43.2197 23.9549 43.6064 24.2718 43.9751C24.5869 44.3348 24.9608 44.6594 25.3934 44.949ZM34.6879 31.0635L34.9069 31.21C35.4962 31.6045 35.9952 32.0756 36.4039 32.6231C36.8071 33.1671 37.1011 33.7514 37.2858 34.3762C37.4705 35.0009 37.5189 35.6363 37.4311 36.2821C37.3469 36.9226 37.1075 37.5376 36.713 38.1269C36.3258 38.7055 35.8702 39.1405 35.3463 39.4319C34.8206 39.7142 34.2681 39.8963 33.6886 39.9783C33.1128 40.0548 32.5497 40.0655 31.9994 40.0103C31.4491 39.9551 30.9503 39.8757 30.5029 39.772C30.0538 39.6593 29.7021 39.5648 29.4477 39.4885L29.1071 39.2605C28.9433 39.0491 28.7264 38.759 28.4563 38.3904C28.1845 38.0127 27.921 37.5818 27.6656 37.0977C27.4049 36.6099 27.2001 36.0853 27.0514 35.5238C26.9063 34.9569 26.8667 34.3784 26.9328 33.7884C26.9971 33.1894 27.2247 32.5979 27.6156 32.0139C28.0064 31.43 28.4819 30.977 29.0419 30.655C29.602 30.333 30.206 30.1383 30.854 30.071C31.5056 29.9982 32.1606 30.049 32.8189 30.2235C33.4755 30.389 34.0985 30.6689 34.6879 31.0635ZM33.9025 32.7105L33.6835 32.5639C33.2509 32.2744 32.8065 32.0552 32.3502 31.9064C31.8885 31.7539 31.4402 31.6809 31.0053 31.6873C30.5703 31.6937 30.1677 31.7922 29.7974 31.9828C29.4253 32.1644 29.109 32.4498 28.8484 32.8391C28.5878 33.2285 28.4427 33.6324 28.413 34.051C28.3779 34.466 28.4196 34.8776 28.5379 35.2856C28.6509 35.6901 28.8008 36.0684 28.9879 36.4207C29.1749 36.7729 29.3647 37.0801 29.5573 37.3421C29.7445 37.6005 29.8949 37.7912 30.0083 37.9141L30.349 38.1421C30.5113 38.2038 30.7502 38.2737 31.0659 38.3519C31.3816 38.4301 31.7379 38.4885 32.1348 38.5272C32.5318 38.5658 32.9369 38.5629 33.3503 38.5186C33.7672 38.4688 34.1636 38.3505 34.5393 38.1635C34.9096 37.9729 35.2232 37.6856 35.4802 37.3017C35.7408 36.9124 35.8886 36.5103 35.9237 36.0953C35.9587 35.6803 35.8963 35.2705 35.7365 34.866C35.5802 34.456 35.3464 34.0685 35.0348 33.7034C34.7179 33.3346 34.3405 33.0037 33.9025 32.7105Z" fill="white"/>
</g>
<defs>
<filter id="filter0_d_3375_10580" x="11.8252" y="10.8606" width="42.2988" height="53.2485" filterUnits="userSpaceOnUse" color-interpolation-filters="sRGB">
<feFlood flood-opacity="0" result="BackgroundImageFix"/>
<feColorMatrix in="SourceAlpha" type="matrix" values="0 0 0 0 0 0 0 0 0 0 0 0 0 0 0 0 0 0 127 0" result="hardAlpha"/>
<feOffset dx="1" dy="6"/>
<feComposite in2="hardAlpha" operator="out"/>
<feColorMatrix type="matrix" values="0 0 0 0 0 0 0 0 0 0 0 0 0 0 0 0 0 0 0.25 0"/>
<feBlend mode="normal" in2="BackgroundImageFix" result="effect1_dropShadow_3375_10580"/>
<feBlend mode="normal" in="SourceGraphic" in2="effect1_dropShadow_3375_10580" result="shape"/>
</filter>
</defs>
</svg>
